<svg width="32" height="32" viewBox="0 0 32 32" fill="none" xmlns="http://www.w3.org/2000/svg">
<path d="M24.2497 13.3147V13.6782L24.5955 13.7903C28.8884 15.1818 30.1874 20.6691 26.9032 23.8243L26.7496 23.9718V24.1848V29.5568L25.7496 28.9854V25.4986V24.7475L25.0567 25.0373C23.5836 25.6535 21.9139 25.6527 20.4427 25.0373L19.7498 24.7475V25.4986V29.2756V30.1371L20.4979 29.7097L22.5016 28.5647C22.6554 28.4768 22.844 28.4768 22.9978 28.5647L24.7496 29.5657V29.7755H25.2496H25.2496H26.7496V30.9987C26.7496 31.2743 26.5255 31.4986 26.2496 31.4986C26.1607 31.4986 26.1607 31.4981 26.1608 31.4973C26.1608 31.4971 26.1608 31.4969 26.1602 31.4968C26.1311 31.4882 26.0577 31.4591 25.8484 31.3458C25.6068 31.215 25.2386 31.0031 24.6341 30.6552C24.2146 30.4138 23.6814 30.107 22.9978 29.7164L22.7498 29.5746L22.5017 29.7164L19.498 31.4328C19.165 31.623 18.7499 31.3814 18.7499 30.9987V27.4988V26.9988H18.2499H4.92208C4.00082 26.9988 3.25059 26.2486 3.25059 25.3273V2.17147C3.25059 1.25021 4.00082 0.499979 4.92208 0.499979H22.5781C23.4994 0.499979 24.2497 1.25023 24.2497 2.17147V13.3147ZM22.7497 13.4994H23.2497V12.9994V2.17147C23.2497 1.80072 22.9489 1.49994 22.5782 1.49994H4.92208C4.55133 1.49994 4.25055 1.80072 4.25055 2.17147V25.3273C4.25055 25.6981 4.55133 25.9989 4.92208 25.9989H18.2499H18.7499V25.4989V24.1848V23.9718L18.5963 23.8243C17.4581 22.7308 16.75 21.1962 16.75 19.4992C16.75 16.1913 19.4419 13.4994 22.7497 13.4994ZM17.75 19.4992C17.75 22.2565 19.9924 24.4989 22.7497 24.4989C25.5071 24.4989 27.7495 22.2565 27.7495 19.4992C27.7495 16.7418 25.5071 14.4994 22.7497 14.4994C19.9924 14.4994 17.75 16.7418 17.75 19.4992Z" fill="black" stroke="black" stroke-width="0.999957"/>
<path d="M22.2488 22.0617C21.8582 22.0617 21.8085 21.9692 20.1952 20.8937C19.7356 20.5873 19.6115 19.9664 19.9178 19.507C20.2242 19.0474 20.845 18.9233 21.3045 19.2296L21.9725 19.6749L23.4177 17.507C23.724 17.0475 24.345 16.9234 24.8044 17.2297C25.264 17.536 25.3881 18.1569 25.0818 18.6164L23.0819 21.6163C22.8891 21.9053 22.572 22.0617 22.2488 22.0617Z" fill="#891D56"/>
<path d="M17.25 6.99967H8.75032C8.1981 6.99967 7.75037 6.55194 7.75037 5.99971C7.75037 5.44749 8.1981 4.99976 8.75032 4.99976H17.25C17.8022 4.99976 18.2499 5.44749 18.2499 5.99971C18.2499 6.55194 17.8022 6.99967 17.25 6.99967Z" fill="#891D56"/>
<path d="M17.25 10.9995H8.75032C8.1981 10.9995 7.75037 10.5518 7.75037 9.99953C7.75037 9.4473 8.1981 8.99957 8.75032 8.99957H17.25C17.8022 8.99957 18.2499 9.4473 18.2499 9.99953C18.2499 10.5518 17.8022 10.9995 17.25 10.9995Z" fill="#891D56"/>
<path d="M13.7501 14.9993H8.75032C8.1981 14.9993 7.75037 14.5516 7.75037 13.9993C7.75037 13.4471 8.1981 12.9994 8.75032 12.9994H13.7501C14.3023 12.9994 14.7501 13.4471 14.7501 13.9993C14.7501 14.5516 14.3023 14.9993 13.7501 14.9993Z" fill="#891D56"/>
</svg>
