<svg width="32" height="32" viewBox="0 0 32 32" fill="none" xmlns="http://www.w3.org/2000/svg">
<mask id="path-1-inside-1_564_275" fill="white">
<path d="M26 15H24L24.77 4.21001C24.7989 3.79874 24.7426 3.38594 24.6049 2.99737C24.4671 2.6088 24.2507 2.2528 23.9692 1.95159C23.6877 1.65038 23.3471 1.41042 22.9687 1.2467C22.5903 1.08297 22.1823 0.998998 21.77 1.00001H10.12C9.70772 0.998998 9.29966 1.08297 8.92129 1.2467C8.54291 1.41042 8.20234 1.65038 7.92084 1.95159C7.63933 2.2528 7.42293 2.6088 7.28514 2.99737C7.14736 3.38594 7.09114 3.79874 7.12 4.21001L7.89 15H6C5.73478 15 5.48043 15.1054 5.29289 15.2929C5.10536 15.4804 5 15.7348 5 16V19C5 19.7957 5.31607 20.5587 5.87868 21.1213C6.44129 21.6839 7.20435 22 8 22H15V25H11.5C10.7044 25 9.94129 25.3161 9.37868 25.8787C8.81607 26.4413 8.5 27.2044 8.5 28V29H8C7.73478 29 7.48043 29.1054 7.29289 29.2929C7.10536 29.4804 7 29.7348 7 30C7 30.2652 7.10536 30.5196 7.29289 30.7071C7.48043 30.8947 7.73478 31 8 31H11C11.2652 31 11.5196 30.8947 11.7071 30.7071C11.8946 30.5196 12 30.2652 12 30C12 29.7348 11.8946 29.4804 11.7071 29.2929C11.5196 29.1054 11.2652 29 11 29H10.5V28C10.5 27.7348 10.6054 27.4804 10.7929 27.2929C10.9804 27.1054 11.2348 27 11.5 27H15V29H14.5C14.2348 29 13.9804 29.1054 13.7929 29.2929C13.6054 29.4804 13.5 29.7348 13.5 30C13.5 30.2652 13.6054 30.5196 13.7929 30.7071C13.9804 30.8947 14.2348 31 14.5 31H17.5C17.7652 31 18.0196 30.8947 18.2071 30.7071C18.3946 30.5196 18.5 30.2652 18.5 30C18.5 29.7348 18.3946 29.4804 18.2071 29.2929C18.0196 29.1054 17.7652 29 17.5 29H17V27H20.5C20.7652 27 21.0196 27.1054 21.2071 27.2929C21.3946 27.4804 21.5 27.7348 21.5 28V29H21C20.7348 29 20.4804 29.1054 20.2929 29.2929C20.1054 29.4804 20 29.7348 20 30C20 30.2652 20.1054 30.5196 20.2929 30.7071C20.4804 30.8947 20.7348 31 21 31H24C24.2652 31 24.5196 30.8947 24.7071 30.7071C24.8946 30.5196 25 30.2652 25 30C25 29.7348 24.8946 29.4804 24.7071 29.2929C24.5196 29.1054 24.2652 29 24 29H23.5V28C23.5 27.2044 23.1839 26.4413 22.6213 25.8787C22.0587 25.3161 21.2956 25 20.5 25H17V22H24C24.7956 22 25.5587 21.6839 26.1213 21.1213C26.6839 20.5587 27 19.7957 27 19V16C27 15.7348 26.8946 15.4804 26.7071 15.2929C26.5196 15.1054 26.2652 15 26 15ZM9.12 4.07001C9.10985 3.93387 9.12768 3.79709 9.1724 3.66811C9.21711 3.53912 9.28776 3.42065 9.38 3.32001C9.47438 3.21823 9.58892 3.13722 9.71632 3.08213C9.84372 3.02704 9.9812 2.99907 10.12 3.00001H21.82C21.9571 3.00045 22.0927 3.02909 22.2183 3.08413C22.3438 3.13918 22.4568 3.21947 22.55 3.32001C22.644 3.41983 22.7165 3.53792 22.763 3.66694C22.8094 3.79597 22.8288 3.93316 22.82 4.07001L22 15H9.9L9.12 4.07001ZM25 19C25 19.2652 24.8946 19.5196 24.7071 19.7071C24.5196 19.8947 24.2652 20 24 20H8C7.73478 20 7.48043 19.8947 7.29289 19.7071C7.10536 19.5196 7 19.2652 7 19V17H25V19Z"/>
</mask>
<path d="M26 15H24L24.77 4.21001C24.7989 3.79874 24.7426 3.38594 24.6049 2.99737C24.4671 2.6088 24.2507 2.2528 23.9692 1.95159C23.6877 1.65038 23.3471 1.41042 22.9687 1.2467C22.5903 1.08297 22.1823 0.998998 21.77 1.00001H10.12C9.70772 0.998998 9.29966 1.08297 8.92129 1.2467C8.54291 1.41042 8.20234 1.65038 7.92084 1.95159C7.63933 2.2528 7.42293 2.6088 7.28514 2.99737C7.14736 3.38594 7.09114 3.79874 7.12 4.21001L7.89 15H6C5.73478 15 5.48043 15.1054 5.29289 15.2929C5.10536 15.4804 5 15.7348 5 16V19C5 19.7957 5.31607 20.5587 5.87868 21.1213C6.44129 21.6839 7.20435 22 8 22H15V25H11.5C10.7044 25 9.94129 25.3161 9.37868 25.8787C8.81607 26.4413 8.5 27.2044 8.5 28V29H8C7.73478 29 7.48043 29.1054 7.29289 29.2929C7.10536 29.4804 7 29.7348 7 30C7 30.2652 7.10536 30.5196 7.29289 30.7071C7.48043 30.8947 7.73478 31 8 31H11C11.2652 31 11.5196 30.8947 11.7071 30.7071C11.8946 30.5196 12 30.2652 12 30C12 29.7348 11.8946 29.4804 11.7071 29.2929C11.5196 29.1054 11.2652 29 11 29H10.5V28C10.5 27.7348 10.6054 27.4804 10.7929 27.2929C10.9804 27.1054 11.2348 27 11.5 27H15V29H14.5C14.2348 29 13.9804 29.1054 13.7929 29.2929C13.6054 29.4804 13.5 29.7348 13.5 30C13.5 30.2652 13.6054 30.5196 13.7929 30.7071C13.9804 30.8947 14.2348 31 14.5 31H17.5C17.7652 31 18.0196 30.8947 18.2071 30.7071C18.3946 30.5196 18.5 30.2652 18.5 30C18.5 29.7348 18.3946 29.4804 18.2071 29.2929C18.0196 29.1054 17.7652 29 17.5 29H17V27H20.5C20.7652 27 21.0196 27.1054 21.2071 27.2929C21.3946 27.4804 21.5 27.7348 21.5 28V29H21C20.7348 29 20.4804 29.1054 20.2929 29.2929C20.1054 29.4804 20 29.7348 20 30C20 30.2652 20.1054 30.5196 20.2929 30.7071C20.4804 30.8947 20.7348 31 21 31H24C24.2652 31 24.5196 30.8947 24.7071 30.7071C24.8946 30.5196 25 30.2652 25 30C25 29.7348 24.8946 29.4804 24.7071 29.2929C24.5196 29.1054 24.2652 29 24 29H23.5V28C23.5 27.2044 23.1839 26.4413 22.6213 25.8787C22.0587 25.3161 21.2956 25 20.5 25H17V22H24C24.7956 22 25.5587 21.6839 26.1213 21.1213C26.6839 20.5587 27 19.7957 27 19V16C27 15.7348 26.8946 15.4804 26.7071 15.2929C26.5196 15.1054 26.2652 15 26 15ZM9.12 4.07001C9.10985 3.93387 9.12768 3.79709 9.1724 3.66811C9.21711 3.53912 9.28776 3.42065 9.38 3.32001C9.47438 3.21823 9.58892 3.13722 9.71632 3.08213C9.84372 3.02704 9.9812 2.99907 10.12 3.00001H21.82C21.9571 3.00045 22.0927 3.02909 22.2183 3.08413C22.3438 3.13918 22.4568 3.21947 22.55 3.32001C22.644 3.41983 22.7165 3.53792 22.763 3.66694C22.8094 3.79597 22.8288 3.93316 22.82 4.07001L22 15H9.9L9.12 4.07001ZM25 19C25 19.2652 24.8946 19.5196 24.7071 19.7071C24.5196 19.8947 24.2652 20 24 20H8C7.73478 20 7.48043 19.8947 7.29289 19.7071C7.10536 19.5196 7 19.2652 7 19V17H25V19Z" fill="black"/>
<path d="M24 15L8.04059 13.8611L6.81751 31H24V15ZM24.77 4.21001L40.7294 5.34891L40.7301 5.33948L40.7307 5.33006L24.77 4.21001ZM21.77 1.00001V17H21.7896L21.8093 17L21.77 1.00001ZM10.12 1.00001L10.0807 17L10.1004 17H10.12V1.00001ZM7.12 4.21001L-8.84075 5.33006L-8.84009 5.33948L-8.83941 5.34891L7.12 4.21001ZM7.89 15V31H25.0725L23.8494 13.8611L7.89 15ZM5 19H21H5ZM8 22V38V22ZM15 22H31V6.00001H15V22ZM15 25V41H31V25H15ZM8.5 29V45H24.5V29H8.5ZM10.5 29H-5.5V45H10.5V29ZM15 27H31V11H15V27ZM15 29V45H31V29H15ZM17 29H1V45H17V29ZM17 27V11H1V27H17ZM21.5 29V45H37.5V29H21.5ZM23.5 29H7.5V45H23.5V29ZM23.5 28H39.5H23.5ZM17 25H1V41H17V25ZM17 22V6.00001H1V22H17ZM24 22V38V22ZM27 19H43H27ZM9.12 4.07001L25.0794 2.93109L25.0776 2.90567L25.0757 2.88025L9.12 4.07001ZM9.38 3.32001L-2.35173 -7.55963L-2.38382 -7.52502L-2.4157 -7.49024L9.38 3.32001ZM10.12 3.00001L10.0117 18.9996L10.0659 19H10.12V3.00001ZM21.82 3.00001L21.8715 -12.9999L21.8457 -13H21.82V3.00001ZM22.55 3.32001L10.8185 14.1999L10.8607 14.2454L10.9032 14.2905L22.55 3.32001ZM22.82 4.07001L38.7752 5.26701L38.7814 5.18331L38.7868 5.09955L22.82 4.07001ZM22 15V31H36.8446L37.9552 16.197L22 15ZM9.9 15L-6.05941 16.1389L-4.99888 31H9.9V15ZM7 17V1.00001H-9V17H7ZM25 17H41V1.00001H25V17ZM26 -0.999992H24V31H26V-0.999992ZM39.9594 16.1389L40.7294 5.34891L8.81059 3.07111L8.04059 13.8611L39.9594 16.1389ZM40.7307 5.33006C40.9135 2.72534 40.5575 0.110929 39.6848 -2.34999L9.52488 8.34473C8.92781 6.66095 8.68419 4.87215 8.80925 3.08996L40.7307 5.33006ZM39.6848 -2.34999C38.8122 -4.81095 37.4416 -7.06562 35.6588 -8.97329L12.2795 12.8765C11.0597 11.5712 10.122 10.0285 9.52488 8.34473L39.6848 -2.34999ZM35.6588 -8.97329C33.8759 -10.8809 31.719 -12.4007 29.3226 -13.4376L16.6148 15.931C14.9752 15.2215 13.4994 14.1817 12.2795 12.8765L35.6588 -8.97329ZM29.3226 -13.4376C26.9262 -14.4745 24.3418 -15.0063 21.7307 -14.9999L21.8093 17C20.0227 17.0043 18.2545 16.6404 16.6148 15.931L29.3226 -13.4376ZM21.77 -15H10.12V17H21.77V-15ZM10.1593 -14.9999C7.54817 -15.0063 4.96378 -14.4745 2.5674 -13.4376L15.2752 15.931C13.6355 16.6404 11.8673 17.0043 10.0807 17L10.1593 -14.9999ZM2.5674 -13.4376C0.17102 -12.4007 -1.98591 -10.881 -3.76878 -8.97329L19.6105 12.8765C18.3906 14.1817 16.9148 15.2215 15.2752 15.931L2.5674 -13.4376ZM-3.76878 -8.97329C-5.55165 -7.06562 -6.92218 -4.81095 -7.79483 -2.34999L22.3651 8.34473C21.768 10.0285 20.8303 11.5712 19.6105 12.8765L-3.76878 -8.97329ZM-7.79483 -2.34999C-8.66748 0.110953 -9.02353 2.72536 -8.84075 5.33006L23.0807 3.08996C23.2058 4.87212 22.9622 6.66093 22.3651 8.34473L-7.79483 -2.34999ZM-8.83941 5.34891L-8.06941 16.1389L23.8494 13.8611L23.0794 3.07111L-8.83941 5.34891ZM7.89 -0.999992H6V31H7.89V-0.999992ZM6 -0.999992C1.49131 -0.999992 -2.8327 0.791082 -6.02081 3.97919L16.6066 26.6066C13.7936 29.4196 9.97826 31 6 31V-0.999992ZM-6.02081 3.97919C-9.20893 7.1673 -11 11.4913 -11 16H21C21 19.9783 19.4196 23.7936 16.6066 26.6066L-6.02081 3.97919ZM-11 16V19H21V16H-11ZM-11 19C-11 24.0391 -8.99822 28.8718 -5.43503 32.435L17.1924 9.80762C19.6304 12.2456 21 15.5522 21 19H-11ZM-5.43503 32.435C-1.87183 35.9982 2.96089 38 8 38V6.00001C11.4478 6.00001 14.7544 7.36964 17.1924 9.80762L-5.43503 32.435ZM8 38H15V6.00001H8V38ZM-1 22V25H31V22H-1ZM15 9.00001H11.5V41H15V9.00001ZM11.5 9.00001C6.46089 9.00001 1.62817 11.0018 -1.93503 14.565L20.6924 37.1924C18.2544 39.6304 14.9478 41 11.5 41V9.00001ZM-1.93503 14.565C-5.49823 18.1282 -7.5 22.9609 -7.5 28H24.5C24.5 31.4478 23.1304 34.7544 20.6924 37.1924L-1.93503 14.565ZM-7.5 28V29H24.5V28H-7.5ZM8.5 13H8V45H8.5V13ZM8 13C3.49135 13 -0.832676 14.7911 -4.02081 17.9792L18.6066 40.6066C15.7935 43.4197 11.9782 45 8 45V13ZM-4.02081 17.9792C-7.20894 21.1673 -9 25.4913 -9 30H23C23 33.9782 21.4197 37.7936 18.6066 40.6066L-4.02081 17.9792ZM-9 30C-9 34.5087 -7.20894 38.8327 -4.02081 42.0208L18.6066 19.3934C21.4197 22.2065 23 26.0218 23 30H-9ZM-4.02081 42.0208C-0.832676 45.209 3.49135 47 8 47V15C11.9782 15 15.7935 16.5803 18.6066 19.3934L-4.02081 42.0208ZM8 47H11V15H8V47ZM11 47C15.5087 47 19.8327 45.209 23.0208 42.0208L0.393398 19.3934C3.20646 16.5803 7.02178 15 11 15V47ZM23.0208 42.0208C26.2089 38.8327 28 34.5087 28 30H-4C-4 26.0218 -2.41965 22.2065 0.393398 19.3934L23.0208 42.0208ZM28 30C28 25.4913 26.2089 21.1673 23.0208 17.9792L0.393398 40.6066C-2.41965 37.7936 -4 33.9782 -4 30H28ZM23.0208 17.9792C19.8327 14.7911 15.5087 13 11 13V45C7.02178 45 3.20646 43.4197 0.393398 40.6066L23.0208 17.9792ZM11 13H10.5V45H11V13ZM26.5 29V28H-5.5V29H26.5ZM26.5 28C26.5 31.9783 24.9197 35.7936 22.1066 38.6066L-0.520815 15.9792C-3.70894 19.1673 -5.5 23.4913 -5.5 28H26.5ZM22.1066 38.6066C19.2935 41.4197 15.4782 43 11.5 43V11C6.99135 11 2.66732 12.7911 -0.520815 15.9792L22.1066 38.6066ZM11.5 43H15V11H11.5V43ZM-1 27V29H31V27H-1ZM15 13H14.5V45H15V13ZM14.5 13C9.99135 13 5.66732 14.7911 2.47919 17.9792L25.1066 40.6066C22.2935 43.4197 18.4782 45 14.5 45V13ZM2.47919 17.9792C-0.708937 21.1673 -2.5 25.4913 -2.5 30H29.5C29.5 33.9782 27.9197 37.7936 25.1066 40.6066L2.47919 17.9792ZM-2.5 30C-2.5 34.5087 -0.708937 38.8327 2.47919 42.0208L25.1066 19.3934C27.9197 22.2065 29.5 26.0218 29.5 30H-2.5ZM2.47919 42.0208C5.66732 45.209 9.99135 47 14.5 47V15C18.4782 15 22.2935 16.5803 25.1066 19.3934L2.47919 42.0208ZM14.5 47H17.5V15H14.5V47ZM17.5 47C22.0086 47 26.3327 45.209 29.5208 42.0208L6.8934 19.3934C9.70648 16.5803 13.5218 15 17.5 15V47ZM29.5208 42.0208C32.709 38.8327 34.5 34.5086 34.5 30H2.5C2.5 26.0218 4.08032 22.2065 6.8934 19.3934L29.5208 42.0208ZM34.5 30C34.5 25.4914 32.709 21.1673 29.5208 17.9792L6.8934 40.6066C4.08032 37.7935 2.5 33.9782 2.5 30H34.5ZM29.5208 17.9792C26.3327 14.791 22.0086 13 17.5 13V45C13.5218 45 9.70648 43.4197 6.8934 40.6066L29.5208 17.9792ZM17.5 13H17V45H17.5V13ZM33 29V27H1V29H33ZM17 43H20.5V11H17V43ZM20.5 43C16.5218 43 12.7065 41.4197 9.8934 38.6066L32.5208 15.9792C29.3327 12.791 25.0086 11 20.5 11V43ZM9.8934 38.6066C7.08032 35.7935 5.5 31.9782 5.5 28H37.5C37.5 23.4914 35.709 19.1673 32.5208 15.9792L9.8934 38.6066ZM5.5 28V29H37.5V28H5.5ZM21.5 13H21V45H21.5V13ZM21 13C16.4914 13 12.1673 14.791 8.97918 17.9792L31.6066 40.6066C28.7935 43.4197 24.9782 45 21 45V13ZM8.97918 17.9792C5.79103 21.1673 4 25.4914 4 30H36C36 33.9782 34.4197 37.7935 31.6066 40.6066L8.97918 17.9792ZM4 30C4 34.5086 5.79103 38.8327 8.97918 42.0208L31.6066 19.3934C34.4197 22.2065 36 26.0218 36 30H4ZM8.97918 42.0208C12.1673 45.209 16.4914 47 21 47V15C24.9782 15 28.7935 16.5803 31.6066 19.3934L8.97918 42.0208ZM21 47H24V15H21V47ZM24 47C28.5086 47 32.8327 45.209 36.0208 42.0208L13.3934 19.3934C16.2065 16.5803 20.0218 15 24 15V47ZM36.0208 42.0208C39.209 38.8327 41 34.5086 41 30H9C9 26.0218 10.5803 22.2065 13.3934 19.3934L36.0208 42.0208ZM41 30C41 25.4914 39.209 21.1673 36.0208 17.9792L13.3934 40.6066C10.5803 37.7935 9 33.9782 9 30H41ZM36.0208 17.9792C32.8327 14.791 28.5086 13 24 13V45C20.0218 45 16.2065 43.4197 13.3934 40.6066L36.0208 17.9792ZM24 13H23.5V45H24V13ZM39.5 29V28H7.5V29H39.5ZM39.5 28C39.5 22.9609 37.4982 18.1282 33.935 14.565L11.3076 37.1924C8.86963 34.7544 7.5 31.4478 7.5 28H39.5ZM33.935 14.565C30.3718 11.0018 25.5391 9.00001 20.5 9.00001V41C17.0522 41 13.7456 39.6304 11.3076 37.1924L33.935 14.565ZM20.5 9.00001H17V41H20.5V9.00001ZM33 25V22H1V25H33ZM17 38H24V6.00001H17V38ZM24 38C29.0391 38 33.8718 35.9982 37.435 32.435L14.8076 9.80762C17.2456 7.36964 20.5522 6.00001 24 6.00001V38ZM37.435 32.435C40.9982 28.8718 43 24.0391 43 19H11C11 15.5522 12.3696 12.2456 14.8076 9.80762L37.435 32.435ZM43 19V16H11V19H43ZM43 16C43 11.4914 41.209 7.16733 38.0208 3.97919L15.3934 26.6066C12.5803 23.7935 11 19.9782 11 16H43ZM38.0208 3.97919C34.8327 0.79107 30.5087 -0.999992 26 -0.999992V31C22.0218 31 18.2064 29.4197 15.3934 26.6066L38.0208 3.97919ZM25.0757 2.88025C25.228 4.92239 24.9605 6.97403 24.2898 8.9088L-5.94498 -1.57259C-6.70513 0.620151 -7.00828 2.94535 -6.8357 5.25977L25.0757 2.88025ZM24.2898 8.9088C23.6191 10.8436 22.5593 12.6206 21.1757 14.1303L-2.4157 -7.49024C-3.98374 -5.77925 -5.18483 -3.76534 -5.94498 -1.57259L24.2898 8.9088ZM21.1117 14.1996C19.696 15.7263 17.9779 16.9415 16.0669 17.7678L3.36574 -11.6036C1.19991 -10.667 -0.747222 -9.2898 -2.35173 -7.55963L21.1117 14.1996ZM16.0669 17.7678C14.1559 18.5942 12.0937 19.0137 10.0117 18.9996L10.2283 -12.9996C7.86866 -13.0156 5.53157 -12.5402 3.36574 -11.6036L16.0669 17.7678ZM10.12 19H21.82V-13H10.12V19ZM21.7685 18.9999C19.7118 18.9933 17.6784 18.5638 15.7946 17.738L28.6419 -11.5698C26.507 -12.5056 24.2025 -12.9924 21.8715 -12.9999L21.7685 18.9999ZM15.7946 17.738C13.9109 16.9123 12.2171 15.708 10.8185 14.1999L34.2815 -7.55991C32.6964 -9.26902 30.7768 -10.6339 28.6419 -11.5698L15.7946 17.738ZM10.9032 14.2905C9.49287 12.7932 8.40552 11.0219 7.70876 9.08646L37.8172 -1.75257C37.0275 -3.94605 35.7952 -5.95358 34.1968 -7.65045L10.9032 14.2905ZM7.70876 9.08646C7.01201 7.15103 6.72081 5.09307 6.85316 3.04047L38.7868 5.09955C38.9368 2.77326 38.6068 0.440898 37.8172 -1.75257L7.70876 9.08646ZM6.86484 2.87301L6.04484 13.803L37.9552 16.197L38.7752 5.26701L6.86484 2.87301ZM22 -0.999992H9.9V31H22V-0.999992ZM25.8594 13.8611L25.0794 2.93109L-6.83941 5.20892L-6.05941 16.1389L25.8594 13.8611ZM9 19C9 15.0218 10.5803 11.2065 13.3934 8.39341L36.0208 31.0208C39.209 27.8327 41 23.5086 41 19H9ZM13.3934 8.39341C16.2065 5.58033 20.0218 4.00001 24 4.00001V36C28.5086 36 32.8327 34.209 36.0208 31.0208L13.3934 8.39341ZM24 4.00001H8V36H24V4.00001ZM8 4.00001C11.9782 4.00001 15.7935 5.58034 18.6066 8.39341L-4.02081 31.0208C-0.832676 34.209 3.49135 36 8 36V4.00001ZM18.6066 8.39341C21.4197 11.2065 23 15.0218 23 19H-9C-9 23.5087 -7.20894 27.8327 -4.02081 31.0208L18.6066 8.39341ZM23 19V17H-9V19H23ZM7 33H25V1.00001H7V33ZM9 17V19H41V17H9Z" fill="black" mask="url(#path-1-inside-1_564_275)"/>
</svg>
