<svg width="32" height="32" viewBox="0 0 32 32" fill="none" xmlns="http://www.w3.org/2000/svg">
<g clip-path="url(#clip0_489_1333)">
<path d="M31.2155 8.09023L31.2157 8.09032C31.3866 8.15405 31.5 8.31724 31.5 8.5C31.5 8.68276 31.3866 8.84595 31.2157 8.90968L31.2154 8.90978L26.1376 10.8063L25.8125 10.9277V11.2747V17.875C25.8125 18.9666 24.8886 20.0942 22.7916 20.933C20.9863 21.655 18.5749 22.0625 16 22.0625C13.4251 22.0625 11.0137 21.655 9.2084 20.933C7.11144 20.0942 6.1875 18.9666 6.1875 17.875V11.2747V10.9277L5.86243 10.8063L2.04993 9.38243L1.375 9.13037V9.85083V23.3479V23.429L1.40066 23.506L3.22754 28.9867C3.22755 28.9867 3.22755 28.9867 3.22756 28.9867C3.30381 29.2157 3.18004 29.4635 2.95084 29.54C2.72189 29.6163 2.47396 29.4928 2.39744 29.2633L2.39737 29.2631L2.34073 29.0934L1.37095 29.1848C1.3422 29.3979 1.15871 29.5625 0.9375 29.5625C0.69582 29.5625 0.5 29.3667 0.5 29.125V8.5C0.5 8.32033 0.615324 8.15326 0.784152 8.09038L0.784542 8.09023L15.847 2.46523L15.8473 2.46512C15.9458 2.42829 16.0542 2.42829 16.1527 2.46512L16.153 2.46523L31.2155 8.09023ZM15.6721 1.99683L0.609619 7.62183L16.3279 1.99683C16.1165 1.91772 15.8835 1.91772 15.6721 1.99683ZM22.4667 20.1205L22.4667 20.1205C23.1536 19.8456 23.7422 19.5163 24.1689 19.1639C24.568 18.8342 24.9375 18.3909 24.9375 17.875V11.9749V11.2544L24.2626 11.5064L16.153 14.5348L16.1527 14.5349C16.0542 14.5717 15.9458 14.5717 15.8473 14.5349L15.847 14.5348L7.73741 11.5064L7.0625 11.2544V11.9749V17.875C7.0625 18.3908 7.43194 18.8343 7.83105 19.1639C8.25782 19.5165 8.84637 19.8458 9.5333 20.1205C11.2711 20.8156 13.5687 21.1875 16 21.1875C18.4313 21.1875 20.7289 20.8156 22.4667 20.1205ZM15.8242 13.5923L15.9995 13.6582L16.175 13.5927L28.5578 8.96839L29.8119 8.49996L28.5577 8.0316L16.1749 3.40733L16 3.342L15.8251 3.40733L5.95276 7.0941L6.12769 8.0625H16C16.2417 8.0625 16.4375 8.25832 16.4375 8.5C16.4375 8.74168 16.2417 8.9375 16 8.9375H6.12769L5.95033 9.90499C5.95171 9.90551 6.28743 10.0309 6.83438 10.2351C9.20291 11.1194 15.5325 13.4828 15.8242 13.5923Z" fill="black" stroke="black"/>
<path d="M0 8.5C0 8.11279 0.243897 7.75806 0.609619 7.62183L6.12769 7.5625H16C16.5178 7.5625 16.9375 7.98218 16.9375 8.5C16.9375 9.01782 16.5178 9.4375 16 9.4375H6.12769C6.12769 9.4375 4 9.33333 2.66667 9.33333C1.875 9.33333 1.875 9.85083 1.875 9.85083V23.3479L3.7019 28.8286C3.86548 29.3196 3.6001 29.8506 3.10889 30.0144C2.61865 30.1777 2.08716 29.9136 1.9231 29.4214L1.86646 29.2517C1.80469 29.7095 1.41235 30.0625 0.9375 30.0625C0.419678 30.0625 0 29.6428 0 29.125V8.5Z" fill="#891D56"/>
</g>
<defs>
<clipPath id="clip0_489_1333">
<rect width="32" height="32" fill="white"/>
</clipPath>
</defs>
</svg>
