<svg width="32" height="32" viewBox="0 0 32 32" fill="none" xmlns="http://www.w3.org/2000/svg">
<path d="M16.0002 8.49602C16.9748 8.49602 17.8429 7.90887 18.4629 7.09853C19.0833 6.2876 19.4676 5.23814 19.4676 4.28196C19.4676 2.37004 17.9122 0.814551 16.0002 0.814551C14.0883 0.814551 12.5328 2.37004 12.5328 4.28196C12.5328 5.23814 12.9172 6.2876 13.5376 7.09853C14.1575 7.90887 15.0257 8.49602 16.0002 8.49602ZM16.0002 1.92884C17.2977 1.92884 18.3534 2.98451 18.3534 4.28196C18.3534 4.96284 18.0734 5.7427 17.6326 6.35218C17.1902 6.96396 16.6031 7.38174 16.0002 7.38174C15.3974 7.38174 14.8103 6.96396 14.3679 6.35218C13.9271 5.7427 13.6471 4.96284 13.6471 4.28196C13.6471 2.98451 14.7028 1.92884 16.0002 1.92884Z" fill="black" stroke="black" stroke-width="0.2"/>
<path fill-rule="evenodd" clip-rule="evenodd" d="M18.5948 7.19938C17.956 8.03432 17.0441 8.66227 15.9998 8.66227C14.9555 8.66227 14.0436 8.03432 13.4048 7.19938C12.7648 6.3629 12.3657 5.27852 12.3657 4.28154C12.3657 2.27757 13.9958 0.647461 15.9998 0.647461C18.0038 0.647461 19.6339 2.27757 19.6339 4.28154C19.6339 5.27852 19.2348 6.3629 18.5948 7.19938ZM18.1863 4.28154C18.1863 3.07614 17.2052 2.09508 15.9998 2.09508C14.7944 2.09508 13.8133 3.07614 13.8133 4.28154C13.8133 4.92181 14.0788 5.66818 14.5025 6.25409C14.9306 6.84611 15.4741 7.21465 15.9998 7.21465C16.5255 7.21465 17.069 6.84611 17.4971 6.25409C17.9208 5.66818 18.1863 4.92181 18.1863 4.28154ZM19.3672 4.28154C19.3672 6.14493 17.8652 8.3956 15.9998 8.3956C14.1344 8.3956 12.6324 6.14493 12.6324 4.28154C12.6324 2.42484 14.1431 0.914128 15.9998 0.914128C17.8565 0.914128 19.3672 2.42484 19.3672 4.28154ZM18.4529 4.28154C18.4529 2.92886 17.3525 1.82841 15.9998 1.82841C14.6471 1.82841 13.5467 2.92886 13.5467 4.28154C13.5467 5.69203 14.7016 7.48131 15.9998 7.48131C17.298 7.48131 18.4529 5.69203 18.4529 4.28154Z" fill="black"/>
<path d="M18.1674 8.41716L18.1675 8.41715C18.1712 8.41693 18.1754 8.41661 18.1801 8.41625C18.2034 8.41447 18.2383 8.41181 18.2735 8.41585C18.2754 8.41572 18.2776 8.41561 18.28 8.41556C18.2864 8.41541 18.2953 8.41569 18.3056 8.41767C18.3057 8.41768 18.3057 8.41768 18.3057 8.41769L18.2868 8.51588L18.1674 8.41716ZM18.1674 8.41716C18.1598 8.41764 18.1552 8.41773 18.1495 8.41784C18.1444 8.41793 18.1383 8.41805 18.1281 8.41848C18.112 8.41917 18.0909 8.42071 18.0681 8.42634C18.033 8.43493 17.9979 8.45262 17.9771 8.46306C17.9725 8.46537 17.9686 8.46732 17.9656 8.46874L17.9653 8.46891M18.1674 8.41716L17.9653 8.46891M17.9653 8.46891C17.958 8.47237 17.9541 8.47404 17.9492 8.47612C17.9446 8.47808 17.9391 8.4804 17.9292 8.48493C17.9145 8.49163 17.8959 8.50089 17.8771 8.51437V8.51437C17.849 8.53441 17.8226 8.56438 17.8081 8.58081C17.8048 8.58455 17.8021 8.58759 17.8001 8.58965L17.8001 8.58973M17.9653 8.46891L17.8001 8.58973M17.8001 8.58973C17.7977 8.59221 17.7948 8.59521 17.7914 8.59868C17.7766 8.61369 17.7533 8.63743 17.7349 8.66469C17.7334 8.6662 17.7317 8.66803 17.7299 8.67004C17.7256 8.67493 17.72 8.6819 17.7149 8.69099L17.7149 8.69105M17.8001 8.58973L17.7149 8.69105M17.7149 8.69105L15.9462 11.8243L14.2924 8.70423L17.7149 8.69105ZM14.2042 8.59364L14.2043 8.59374C14.2065 8.59609 14.2088 8.59863 14.2113 8.60134C14.2274 8.61858 14.2502 8.64304 14.269 8.67246C14.271 8.67453 14.274 8.67779 14.2772 8.6816C14.2817 8.68703 14.2872 8.69452 14.2923 8.70409L14.2042 8.59364ZM14.2042 8.59364C14.2019 8.59113 14.1992 8.58805 14.1961 8.58454C14.1809 8.56739 14.1566 8.53995 14.1287 8.51944L14.0694 8.59992M14.2042 8.59364L14.0373 8.46947L14.0376 8.4696C14.0406 8.47107 14.0443 8.47275 14.0484 8.47467C14.0689 8.48412 14.1014 8.49911 14.129 8.51964L14.0694 8.59992M14.0694 8.59992C14.051 8.58625 14.0308 8.57686 14.0103 8.56729C14.0049 8.56479 13.9995 8.56227 13.9941 8.55966M14.0694 8.59992C14.0877 8.61345 14.1028 8.63031 14.1181 8.64748L13.9941 8.55966M13.9941 8.55966C13.989 8.55723 13.984 8.55476 13.9791 8.55231C13.9577 8.54177 13.9367 8.53144 13.9134 8.52542M13.9941 8.55966L13.826 8.51629L13.8317 8.51672M13.9134 8.52542L13.9388 8.42868C13.9387 8.42865 13.9386 8.42863 13.9385 8.42861C13.9069 8.42038 13.8715 8.41864 13.8504 8.4176C13.8458 8.41738 13.8419 8.41718 13.8388 8.41697L13.8317 8.51672M13.9134 8.52542C13.893 8.52008 13.8722 8.51898 13.851 8.51785C13.8446 8.51752 13.8382 8.51717 13.8317 8.51672M13.9134 8.52542L13.8317 8.51672M13.8317 8.51672L13.8391 8.41699C13.8368 8.41682 13.8344 8.41664 13.832 8.41645C13.8052 8.41441 13.7689 8.41165 13.7302 8.41614C13.7275 8.41591 13.7237 8.41567 13.7195 8.41561C13.7127 8.41552 13.7036 8.4159 13.6932 8.41793C11.4979 8.84386 9.89927 10.7078 9.89927 12.8561V15.811C9.89927 16.1187 10.1487 16.3681 10.4564 16.3681H15.4428V20.3889H4.43432C4.12664 20.3889 3.87718 20.6383 3.87718 20.946V25.6994H2.24816C1.94048 25.6994 1.69102 25.9488 1.69102 26.2565V30.6288C1.69102 30.9365 1.94047 31.186 2.24816 31.186H6.62048C6.92816 31.186 7.17762 30.9365 7.17762 30.6288V26.2565C7.17762 25.9488 6.92816 25.6994 6.62048 25.6994H4.99146V21.5032H15.4428V25.6994H13.8138C13.5061 25.6994 13.2566 25.9488 13.2566 26.2565V30.6288C13.2566 30.9365 13.5061 31.186 13.8138 31.186H18.1861C18.4938 31.186 18.7432 30.9365 18.7432 30.6288V26.2565C18.7432 25.9488 18.4938 25.6994 18.1861 25.6994H16.5571V21.5032H27.0084V25.6994H25.3794C25.0717 25.6994 24.8223 25.9488 24.8223 26.2565V30.6288C24.8223 30.9365 25.0717 31.186 25.3794 31.186H29.7517C30.0594 31.186 30.3089 30.9365 30.3089 30.6288V26.2565C30.3089 25.9488 30.0594 25.6994 29.7517 25.6994H28.1227V20.946C28.1227 20.6383 27.8733 20.3889 27.5656 20.3889H16.5571V16.3681L13.8317 8.51672ZM15.4384 13.2457L15.4384 13.2458C15.5338 13.4255 15.7196 13.5393 15.9234 13.542V13.542H15.9247H15.9247H15.9247H15.9248H15.9248H15.9248H15.9248H15.9248H15.9248H15.9248H15.9248H15.9248H15.9249H15.9249H15.9249H15.9249H15.9249H15.9249H15.9249H15.9249H15.925H15.925H15.925H15.925H15.925H15.925H15.925H15.925H15.925H15.9251H15.9251H15.9251H15.9251H15.9251H15.9251H15.9251H15.9251H15.9252H15.9252H15.9252H15.9252H15.9252H15.9252H15.9252H15.9252H15.9253H15.9253H15.9253H15.9253H15.9253H15.9253H15.9253H15.9253H15.9253H15.9254H15.9254H15.9254H15.9254H15.9254H15.9254H15.9254H15.9254H15.9254H15.9255H15.9255H15.9255H15.9255H15.9255H15.9255H15.9255H15.9255H15.9256H15.9256H15.9256H15.9256H15.9256H15.9256H15.9256H15.9256H15.9256H15.9257H15.9257H15.9257H15.9257H15.9257H15.9257H15.9257H15.9257H15.9258H15.9258H15.9258H15.9258H15.9258H15.9258H15.9258H15.9258H15.9258H15.9259H15.9259H15.9259H15.9259H15.9259H15.9259H15.9259H15.9259H15.926H15.926H15.926H15.926H15.926H15.926H15.926H15.926H15.9261H15.9261H15.9261H15.9261H15.9261H15.9261H15.9261H15.9261H15.9261H15.9262H15.9262H15.9262H15.9262H15.9262H15.9262H15.9262H15.9262H15.9263H15.9263H15.9263H15.9263H15.9263H15.9263H15.9263H15.9263H15.9263H15.9264H15.9264H15.9264H15.9264H15.9264H15.9264H15.9264H15.9264H15.9265H15.9265H15.9265H15.9265H15.9265H15.9265H15.9265H15.9265H15.9265H15.9266H15.9266H15.9266H15.9266H15.9266H15.9266H15.9266H15.9266H15.9267H15.9267H15.9267H15.9267H15.9267H15.9267H15.9267H15.9267H15.9267H15.9268H15.9268H15.9268H15.9268H15.9268H15.9268H15.9268H15.9268H15.9269H15.9269H15.9269H15.9269H15.9269H15.9269H15.9269H15.9269H15.9269H15.927H15.927H15.927H15.927H15.927H15.927H15.927H15.927H15.9271H15.9271H15.9271H15.9271H15.9271H15.9271H15.9271H15.9271H15.9271H15.9272H15.9272H15.9272H15.9272H15.9272H15.9272H15.9272H15.9272H15.9273H15.9273H15.9273H15.9273H15.9273H15.9273H15.9273H15.9273H15.9273H15.9274H15.9274H15.9274H15.9274H15.9274H15.9274H15.9274H15.9274H15.9275H15.9275H15.9275H15.9275H15.9275H15.9275H15.9275H15.9275H15.9275H15.9276H15.9276H15.9276H15.9276H15.9276H15.9276H15.9276H15.9276H15.9277H15.9277H15.9277H15.9277H15.9277H15.9277H15.9277H15.9277H15.9277H15.9278H15.9278H15.9278H15.9278H15.9278H15.9278H15.9278H15.9278H15.9279H15.9279H15.9279H15.9279H15.9279H15.9279H15.9279H15.9279H15.9279H15.928H15.928H15.928H15.928H15.928H15.928H15.928H15.928H15.9281H15.9281H15.9281H15.9281H15.9281H15.9281H15.9281H15.9281H15.9281H15.9282H15.9282H15.9282H15.9282H15.9282H15.9282H15.9282H15.9282H15.9283H15.9283H15.9283H15.9283H15.9283H15.9283H15.9283H15.9283H15.9283H15.9284H15.9284H15.9284H15.9284H15.9284H15.9284H15.9284H15.9284H15.9285H15.9285H15.9285H15.9285H15.9285H15.9285H15.9285H15.9285H15.9285H15.9286H15.9286H15.9286H15.9286H15.9286H15.9286H15.9286H15.9286H15.9287H15.9287H15.9287H15.9287H15.9287H15.9287H15.9287H15.9287H15.9287H15.9288H15.9288H15.9288H15.9288H15.9288H15.9288H15.9288H15.9288H15.9289H15.9289H15.9289H15.9289H15.9289H15.9289H15.9289H15.9289H15.9289H15.929H15.929H15.929H15.929H15.929H15.929H15.929H15.929H15.9291H15.9291H15.9291H15.9291H15.9291H15.9291H15.9291H15.9291H15.9291H15.9292H15.9292H15.9292H15.9292H15.9292H15.9292H15.9292H15.9292H15.9293H15.9293H15.9293H15.9293H15.9293H15.9293H15.9293H15.9293H15.9293H15.9294H15.9294H15.9294H15.9294H15.9294H15.9294H15.9294H15.9294H15.9295H15.9295H15.9295H15.9295H15.9295H15.9295H15.9295H15.9295H15.9295H15.9296H15.9296H15.9296H15.9296H15.9296H15.9296H15.9296H15.9296H15.9297H15.9297H15.9297H15.9297H15.9297H15.9297H15.9297H15.9297H15.9297H15.9298H15.9298H15.9298H15.9298H15.9298H15.9298H15.9298H15.9298H15.9299H15.9299H15.9299H15.9299H15.9299H15.9299H15.9299H15.9299H15.9299H15.93H15.93H15.93H15.93H15.93H15.93H15.93H15.93H15.9301H15.9301H15.9301H15.9301H15.9301H15.9301H15.9301H15.9301H15.9301H15.9302H15.9302H15.9302H15.9302H15.9302H15.9302H15.9302H15.9302H15.9303H15.9303H15.9303H15.9303H15.9303H15.9303H15.9303H15.9303H15.9303H15.9304H15.9304H15.9304H15.9304H15.9304H15.9304H15.9304H15.9304H15.9305H15.9305H15.9305H15.9305H15.9305H15.9305H15.9305H15.9305H15.9305H15.9306H15.9306H15.9306H15.9306H15.9306H15.9306H15.9306H15.9306H15.9307H15.9307H15.9307H15.9307H15.9307H15.9307H15.9307H15.9307H15.9307C16.1315 13.542 16.3171 13.434 16.4159 13.2587L18.4776 9.60628C19.9552 10.0546 20.9863 11.369 20.9863 12.8561V15.2538H19.4285V12.802C19.4285 12.4944 19.1791 12.2449 18.8714 12.2449C18.5637 12.2449 18.3142 12.4944 18.3142 12.802V15.2538H13.6857V12.802C13.6857 12.4944 13.4362 12.2449 13.1285 12.2449C12.8208 12.2449 12.5714 12.4944 12.5714 12.802V15.2538H11.0136V12.8561C11.0136 11.3762 12.0395 10.0651 13.5115 9.6106L15.4384 13.2457ZM18.1491 8.51788C18.1298 8.51836 18.1106 8.51883 18.092 8.52344L18.1736 8.51697C18.1654 8.51748 18.1572 8.51768 18.1491 8.51788ZM17.629 30.0717H14.3709V26.8136H17.629V30.0717ZM25.9366 30.0717V26.8136H29.1946V30.0717H25.9366ZM2.8053 26.8136H6.06334V30.0717H2.8053V26.8136Z" fill="black" stroke="black" stroke-width="0.2"/>
<path fill-rule="evenodd" clip-rule="evenodd" d="M13.7361 8.5162C13.7666 8.51184 13.7959 8.51403 13.826 8.51627L13.8318 8.5167C13.8382 8.51716 13.8447 8.5175 13.8511 8.51784C13.8723 8.51896 13.8931 8.52007 13.9135 8.52541C13.9368 8.53143 13.9577 8.54176 13.9791 8.5523C13.9841 8.55475 13.9891 8.55722 13.9942 8.55964C13.9996 8.56225 14.005 8.56477 14.0104 8.56728C14.0309 8.57685 14.0511 8.58624 14.0695 8.5999C14.0878 8.61344 14.1029 8.6303 14.1182 8.64747C14.1223 8.65208 14.1264 8.6567 14.1306 8.66129C14.1334 8.66429 14.1361 8.66726 14.1389 8.67022C14.1566 8.68935 14.1739 8.70802 14.1876 8.73085C14.1898 8.73444 14.1926 8.73733 14.1954 8.74021C14.1986 8.74345 14.2018 8.74669 14.204 8.75091L15.9435 12.0326L17.802 8.74019C17.8037 8.73718 17.8061 8.7349 17.8085 8.73262C17.8107 8.73052 17.8128 8.72841 17.8145 8.72574C17.827 8.70555 17.843 8.68916 17.8592 8.67253C17.8638 8.66781 17.8684 8.66307 17.873 8.65822C17.8784 8.65243 17.8837 8.64651 17.8889 8.64062C17.9034 8.62433 17.9178 8.60824 17.9353 8.59572L17.7802 8.37876C17.7804 8.3786 17.78 8.37891 17.7802 8.37876C17.7475 8.40222 17.7227 8.42742 17.7077 8.44349C17.7009 8.45084 17.6943 8.45817 17.69 8.46307L17.6888 8.46436L17.6789 8.47534C17.6788 8.47544 17.6783 8.47597 17.6777 8.4765C17.6714 8.48269 17.636 8.51748 17.6056 8.55902C17.6058 8.55882 17.6055 8.55921 17.6056 8.55902C17.5959 8.57008 17.5822 8.58712 17.5699 8.60898L15.9509 11.4771L14.4398 8.6264M18.0284 8.26448C18.067 8.25496 18.1009 8.25281 18.1211 8.25195C18.1405 8.25113 18.1445 8.25117 18.1471 8.2512C18.1491 8.25122 18.1502 8.25123 18.157 8.25081C18.1581 8.25074 18.1602 8.25057 18.1627 8.25036C18.1794 8.24892 18.2271 8.24483 18.2779 8.24889M18.3373 8.25402C20.6069 8.69009 22.2673 10.6188 22.2673 12.856V15.811C22.2673 16.2107 21.9433 16.5348 21.5435 16.5348H16.7238V20.2222H27.5656C27.9654 20.2222 28.2894 20.5463 28.2894 20.946V25.5327H29.7518C30.1515 25.5327 30.4756 25.8568 30.4756 26.2565V30.6288C30.4756 31.0285 30.1515 31.3526 29.7518 31.3526H25.3795C24.9797 31.3526 24.6557 31.0285 24.6557 30.6288V26.2565C24.6557 25.8568 24.9797 25.5327 25.3795 25.5327H26.8418V21.6698H16.7238V25.5327H18.1862C18.5859 25.5327 18.91 25.8568 18.91 26.2565V30.6288C18.91 31.0285 18.5859 31.3526 18.1862 31.3526H13.8138C13.4141 31.3526 13.09 31.0285 13.09 30.6288V26.2565C13.09 25.8568 13.4141 25.5327 13.8138 25.5327H15.2762V21.6698H5.15819V25.5327H6.62055C7.02028 25.5327 7.34435 25.8568 7.34435 26.2565V30.6288C7.34435 31.0285 7.02028 31.3526 6.62055 31.3526H2.24822C1.84849 31.3526 1.52441 31.0285 1.52441 30.6288V26.2565C1.52441 25.8568 1.84849 25.5327 2.24822 25.5327H3.71058V20.946C3.71058 20.5463 4.03465 20.2222 4.43438 20.2222H15.2762V16.5348H10.4565C10.0568 16.5348 9.73267 16.2107 9.73267 15.811V12.856C9.73267 10.6228 11.3931 8.69443 13.6615 8.2543C13.6859 8.24956 13.7068 8.24874 13.7218 8.24894C13.7234 8.24896 13.725 8.249 13.7265 8.24904C13.7765 8.24485 13.821 8.24836 13.8444 8.25021C13.8467 8.2504 13.8489 8.25057 13.8508 8.25071C13.851 8.25073 13.8506 8.2507 13.8508 8.25071M13.7123 8.51609C11.5609 8.9335 9.99934 10.7587 9.99934 12.856V15.811C9.99934 16.0634 10.204 16.2681 10.4565 16.2681H15.5429V20.4889H4.43438C4.18193 20.4889 3.97724 20.6935 3.97724 20.946V25.7993H2.24822C1.99577 25.7993 1.79108 26.004 1.79108 26.2565V30.6288C1.79108 30.8813 1.99577 31.086 2.24822 31.086H6.62055C6.873 31.086 7.07769 30.8813 7.07769 30.6288V26.2565C7.07769 26.004 6.873 25.7993 6.62055 25.7993H4.89153V21.4031H15.5429V25.7993H13.8138C13.5614 25.7993 13.3567 26.004 13.3567 26.2565V30.6288C13.3567 30.8813 13.5614 31.086 13.8138 31.086H18.1862C18.4386 31.086 18.6433 30.8813 18.6433 30.6288V26.2565C18.6433 26.004 18.4386 25.7993 18.1862 25.7993H16.4572V21.4031H27.1085V25.7993H25.3795C25.127 25.7993 24.9223 26.004 24.9223 26.2565V30.6288C24.9223 30.8813 25.127 31.086 25.3795 31.086H29.7518C30.0043 31.086 30.2089 30.8813 30.2089 30.6288V26.2565C30.2089 26.004 30.0043 25.7993 29.7518 25.7993H28.0228V20.946C28.0228 20.6935 27.8181 20.4889 27.5656 20.4889H16.4572V16.2681H21.5435C21.796 16.2681 22.0007 16.0634 22.0007 15.811V12.856C22.0007 10.7545 20.4389 8.92926 18.2868 8.51586M13.7123 8.51609C13.7166 8.51524 13.7207 8.51564 13.7248 8.51603C13.7285 8.51639 13.7322 8.51675 13.7361 8.5162M18.0083 8.5592C18.015 8.55606 18.0215 8.55279 18.0281 8.54954C18.0488 8.53919 18.0694 8.52897 18.0921 8.52343C18.1107 8.51881 18.1298 8.51834 18.1492 8.51787M15.5268 13.1989L13.5616 9.49142C12.009 9.93442 10.9136 11.3019 10.9136 12.856V15.3538H12.6714V12.802C12.6714 12.5496 12.8761 12.3449 13.1286 12.3449C13.381 12.3449 13.5857 12.5496 13.5857 12.802V15.3538H18.4143V12.802C18.4143 12.5496 18.619 12.3449 18.8714 12.3449C19.1239 12.3449 19.3286 12.5496 19.3286 12.802V15.3538H21.0864V12.856C21.0864 11.2955 19.9868 9.92516 18.4296 9.48805L16.3288 13.2096C16.2478 13.3534 16.0955 13.442 15.9308 13.442H15.9248C15.7576 13.4397 15.6051 13.3464 15.5268 13.1989ZM16.5611 13.3406L18.5559 9.80676L16.5611 13.3406ZM18.5559 9.80676C19.9004 10.2702 20.8197 11.4908 20.8197 12.856V15.0871H19.5952V12.802C19.5952 12.4023 19.2712 12.0782 18.8714 12.0782C18.4717 12.0782 18.1476 12.4023 18.1476 12.802V15.0871H13.8524V12.802C13.8524 12.4023 13.5283 12.0782 13.1286 12.0782C12.7289 12.0782 12.4048 12.4023 12.4048 12.802V15.0871H11.1803V12.856C11.1803 11.4991 12.0928 10.2828 13.4302 9.8129M14.5377 29.905H17.4624V26.9803H14.5377V29.905ZM26.1033 29.905V26.9803H29.028V29.905H26.1033ZM5.89674 26.9803V29.905H2.97203V26.9803H5.89674ZM17.729 30.1717V26.7136H14.271V30.1717H17.729ZM29.2947 30.1717V26.7136H25.8366V30.1717H29.2947ZM2.70537 26.7136V30.1717H6.1634V26.7136H2.70537Z" fill="black"/>
</svg>
