<svg width="32" height="32" viewBox="0 0 32 32" fill="none" xmlns="http://www.w3.org/2000/svg">
<mask id="path-1-inside-1_1259_906" fill="white">
<path d="M30.9762 18.944L29.6962 16C29.2162 14.944 28.1922 14.24 27.0082 14.24H24.9602V13.472C24.9602 12.864 24.4482 12.352 23.8402 12.352H16.6082V10.016L17.6002 10.752C17.7282 10.848 17.8882 10.912 18.0482 10.912C18.2722 10.912 18.5282 10.816 18.6562 10.592C18.9122 10.24 18.8162 9.76 18.4962 9.536L15.1682 7.136V4.704C15.1682 4.288 14.8162 3.936 14.4002 3.936C13.9842 3.936 13.6322 4.288 13.6322 4.704V6.016L10.2402 3.584C9.98416 3.392 9.60016 3.392 9.34416 3.584L1.12016 9.536C0.768155 9.76 0.704155 10.24 0.960155 10.592C1.21616 10.944 1.69616 11.008 2.01616 10.752L3.00816 10.016V16.96C3.00816 17.376 3.36016 17.728 3.77616 17.728H9.02416V24.832C9.02416 25.44 9.53616 25.952 10.1442 25.952H11.3922C11.4562 27.424 12.6722 28.608 14.1762 28.608C15.6802 28.608 16.8642 27.424 16.9602 25.952H23.3282C23.3922 27.424 24.6082 28.608 26.1122 28.608C27.5842 28.608 28.8002 27.424 28.8642 25.952H29.4402C30.4322 25.952 31.2002 25.152 31.2002 24.192V20.096C31.2002 19.712 31.1362 19.328 30.9762 18.944ZM24.9602 15.776H27.0082C27.5522 15.776 28.0642 16.096 28.2882 16.608L29.3762 19.168H24.9602V15.776ZM7.20016 10.592V16.16H4.57616V8.928L9.82416 5.12L15.0722 8.928V16.16H12.4482V10.592C12.4482 10.176 12.0962 9.824 11.6802 9.824H7.96816C7.52016 9.824 7.20016 10.176 7.20016 10.592ZM8.73616 11.36H10.9122V16.192H8.73616V11.36ZM14.1762 27.04C13.4722 27.04 12.8962 26.464 12.8962 25.792C12.8962 25.088 13.4722 24.512 14.1762 24.512C14.8802 24.512 15.4562 25.088 15.4562 25.792C15.4242 26.496 14.8482 27.04 14.1762 27.04ZM26.0802 27.04C25.3762 27.04 24.8002 26.464 24.8002 25.792C24.8002 25.088 25.3762 24.512 26.0802 24.512C26.7842 24.512 27.3282 25.088 27.3282 25.792C27.3282 26.496 26.7522 27.04 26.0802 27.04ZM29.6962 24.16C29.6962 24.288 29.5682 24.416 29.4402 24.416H28.4802C28.0002 23.584 27.1042 23.04 26.0802 23.04C25.0562 23.04 24.1602 23.616 23.6802 24.416H16.5442C16.0642 23.584 15.1682 23.04 14.1442 23.04C13.1202 23.04 12.2242 23.616 11.7442 24.416H10.5282V17.728H15.8402C16.2562 17.728 16.6082 17.376 16.6082 16.96V13.888H23.4242V19.424C23.4242 20.096 24.0002 20.672 24.6722 20.672H29.6642V24.16H29.6962Z"/>
</mask>
<path d="M30.9762 18.944L29.6962 16C29.2162 14.944 28.1922 14.24 27.0082 14.24H24.9602V13.472C24.9602 12.864 24.4482 12.352 23.8402 12.352H16.6082V10.016L17.6002 10.752C17.7282 10.848 17.8882 10.912 18.0482 10.912C18.2722 10.912 18.5282 10.816 18.6562 10.592C18.9122 10.24 18.8162 9.76 18.4962 9.536L15.1682 7.136V4.704C15.1682 4.288 14.8162 3.936 14.4002 3.936C13.9842 3.936 13.6322 4.288 13.6322 4.704V6.016L10.2402 3.584C9.98416 3.392 9.60016 3.392 9.34416 3.584L1.12016 9.536C0.768155 9.76 0.704155 10.24 0.960155 10.592C1.21616 10.944 1.69616 11.008 2.01616 10.752L3.00816 10.016V16.96C3.00816 17.376 3.36016 17.728 3.77616 17.728H9.02416V24.832C9.02416 25.44 9.53616 25.952 10.1442 25.952H11.3922C11.4562 27.424 12.6722 28.608 14.1762 28.608C15.6802 28.608 16.8642 27.424 16.9602 25.952H23.3282C23.3922 27.424 24.6082 28.608 26.1122 28.608C27.5842 28.608 28.8002 27.424 28.8642 25.952H29.4402C30.4322 25.952 31.2002 25.152 31.2002 24.192V20.096C31.2002 19.712 31.1362 19.328 30.9762 18.944ZM24.9602 15.776H27.0082C27.5522 15.776 28.0642 16.096 28.2882 16.608L29.3762 19.168H24.9602V15.776ZM7.20016 10.592V16.16H4.57616V8.928L9.82416 5.12L15.0722 8.928V16.16H12.4482V10.592C12.4482 10.176 12.0962 9.824 11.6802 9.824H7.96816C7.52016 9.824 7.20016 10.176 7.20016 10.592ZM8.73616 11.36H10.9122V16.192H8.73616V11.36ZM14.1762 27.04C13.4722 27.04 12.8962 26.464 12.8962 25.792C12.8962 25.088 13.4722 24.512 14.1762 24.512C14.8802 24.512 15.4562 25.088 15.4562 25.792C15.4242 26.496 14.8482 27.04 14.1762 27.04ZM26.0802 27.04C25.3762 27.04 24.8002 26.464 24.8002 25.792C24.8002 25.088 25.3762 24.512 26.0802 24.512C26.7842 24.512 27.3282 25.088 27.3282 25.792C27.3282 26.496 26.7522 27.04 26.0802 27.04ZM29.6962 24.16C29.6962 24.288 29.5682 24.416 29.4402 24.416H28.4802C28.0002 23.584 27.1042 23.04 26.0802 23.04C25.0562 23.04 24.1602 23.616 23.6802 24.416H16.5442C16.0642 23.584 15.1682 23.04 14.1442 23.04C13.1202 23.04 12.2242 23.616 11.7442 24.416H10.5282V17.728H15.8402C16.2562 17.728 16.6082 17.376 16.6082 16.96V13.888H23.4242V19.424C23.4242 20.096 24.0002 20.672 24.6722 20.672H29.6642V24.16H29.6962Z" fill="black"/>
<path d="M30.9762 18.944L33.7454 17.7902L33.7365 17.7689L33.7274 17.7478L30.9762 18.944ZM29.6962 16L32.4474 14.8038L32.4375 14.7811L32.4273 14.7586L29.6962 16ZM24.9602 14.24H21.9602V17.24H24.9602V14.24ZM16.6082 12.352H13.6082V15.352H16.6082V12.352ZM16.6082 10.016L18.3957 7.60671L13.6082 4.05466V10.016H16.6082ZM17.6002 10.752L19.4002 8.352L19.3939 8.34734L19.3877 8.34271L17.6002 10.752ZM18.6562 10.592L16.2299 8.82749L16.1331 8.96064L16.0514 9.10359L18.6562 10.592ZM18.4962 9.536L16.7414 11.9693L16.7585 11.9816L16.7758 11.9937L18.4962 9.536ZM15.1682 7.136H12.1682V8.67127L13.4134 9.56927L15.1682 7.136ZM13.6322 6.016L11.8841 8.45409L16.6322 11.8584V6.016H13.6322ZM10.2402 3.584L8.44016 5.984L8.46592 6.00333L8.49209 6.02209L10.2402 3.584ZM9.34416 3.584L11.103 6.01429L11.1237 5.99932L11.1442 5.984L9.34416 3.584ZM1.12016 9.536L2.73078 12.067L2.80642 12.0189L2.87904 11.9663L1.12016 9.536ZM2.01616 10.752L0.228615 8.34271L0.184735 8.37526L0.14207 8.4094L2.01616 10.752ZM3.00816 10.016H6.00816V4.05466L1.22061 7.60671L3.00816 10.016ZM9.02416 17.728H12.0242V14.728H9.02416V17.728ZM11.3922 25.952L14.3893 25.8217L14.2646 22.952H11.3922V25.952ZM16.9602 25.952V22.952H14.1494L13.9665 25.7568L16.9602 25.952ZM23.3282 25.952L26.3253 25.8217L26.2006 22.952H23.3282V25.952ZM28.8642 25.952V22.952H25.9918L25.867 25.8217L28.8642 25.952ZM24.9602 15.776V12.776H21.9602V15.776H24.9602ZM28.2882 16.608L31.0491 15.4346L31.043 15.42L31.0366 15.4055L28.2882 16.608ZM29.3762 19.168V22.168H33.9109L32.1371 17.9946L29.3762 19.168ZM24.9602 19.168H21.9602V22.168H24.9602V19.168ZM7.20016 16.16V19.16H10.2002V16.16H7.20016ZM4.57616 16.16H1.57616V19.16H4.57616V16.16ZM4.57616 8.928L2.81428 6.49988L1.57616 7.39827V8.928H4.57616ZM9.82416 5.12L11.586 2.69188L9.82416 1.41344L8.06228 2.69187L9.82416 5.12ZM15.0722 8.928H18.0722V7.39827L16.834 6.49988L15.0722 8.928ZM15.0722 16.16V19.16H18.0722V16.16H15.0722ZM12.4482 16.16H9.44816V19.16H12.4482V16.16ZM7.96816 9.824V12.824V9.824ZM8.73616 11.36V8.36H5.73616V11.36H8.73616ZM10.9122 11.36H13.9122V8.36H10.9122V11.36ZM10.9122 16.192V19.192H13.9122V16.192H10.9122ZM8.73616 16.192H5.73616V19.192H8.73616V16.192ZM15.4562 25.792L18.4531 25.9282L18.4562 25.8601V25.792H15.4562ZM29.6962 24.16H32.6962V21.16H29.6962V24.16ZM28.4802 24.416L25.8816 25.9152L26.7475 27.416H28.4802V24.416ZM23.6802 24.416V27.416H25.3787L26.2526 25.9595L23.6802 24.416ZM16.5442 24.416L13.9456 25.9152L14.8115 27.416H16.5442V24.416ZM11.7442 24.416V27.416H13.4427L14.3166 25.9595L11.7442 24.416ZM10.5282 24.416H7.52816V27.416H10.5282V24.416ZM10.5282 17.728V14.728H7.52816V17.728H10.5282ZM16.6082 13.888V10.888H13.6082V13.888H16.6082ZM23.4242 13.888H26.4242V10.888H23.4242V13.888ZM29.6642 20.672H32.6642V17.672H29.6642V20.672ZM29.6642 24.16H26.6642V27.16H29.6642V24.16ZM33.7274 17.7478L32.4474 14.8038L26.9449 17.1962L28.2249 20.1402L33.7274 17.7478ZM32.4273 14.7586C31.4882 12.6926 29.4341 11.24 27.0082 11.24V17.24C27.0053 17.24 26.9959 17.2393 26.9835 17.2356C26.9717 17.232 26.9627 17.2272 26.957 17.2235C26.9457 17.216 26.9539 17.2169 26.9651 17.2414L32.4273 14.7586ZM27.0082 11.24H24.9602V17.24H27.0082V11.24ZM27.9602 14.24V13.472H21.9602V14.24H27.9602ZM27.9602 13.472C27.9602 11.2071 26.105 9.352 23.8402 9.352V15.352C22.7913 15.352 21.9602 14.5209 21.9602 13.472H27.9602ZM23.8402 9.352H16.6082V15.352H23.8402V9.352ZM19.6082 12.352V10.016H13.6082V12.352H19.6082ZM14.8206 12.4253L15.8126 13.1613L19.3877 8.34271L18.3957 7.60671L14.8206 12.4253ZM15.8002 13.152C16.3371 13.5547 17.1135 13.912 18.0482 13.912V7.912C18.6628 7.912 19.1192 8.14126 19.4002 8.352L15.8002 13.152ZM18.0482 13.912C18.9688 13.912 20.4338 13.5279 21.2609 12.0804L16.0514 9.10359C16.6225 8.10413 17.5755 7.912 18.0482 7.912V13.912ZM21.0824 12.3565C22.3237 10.6497 21.9135 8.26621 20.2165 7.07831L16.7758 11.9937C15.7188 11.2538 15.5006 9.83034 16.2299 8.82749L21.0824 12.3565ZM20.2509 7.10273L16.9229 4.70273L13.4134 9.56927L16.7414 11.9693L20.2509 7.10273ZM18.1682 7.136V4.704H12.1682V7.136H18.1682ZM18.1682 4.704C18.1682 2.63115 16.473 0.936003 14.4002 0.936003V6.936C13.1593 6.936 12.1682 5.94486 12.1682 4.704H18.1682ZM14.4002 0.936003C12.3273 0.936003 10.6322 2.63115 10.6322 4.704H16.6322C16.6322 5.94486 15.641 6.936 14.4002 6.936V0.936003ZM10.6322 4.704V6.016H16.6322V4.704H10.6322ZM15.3802 3.57791L11.9882 1.14591L8.49209 6.02209L11.8841 8.45409L15.3802 3.57791ZM12.0402 1.184C10.7175 0.192002 8.86682 0.192002 7.54416 1.184L11.1442 5.984C10.7006 6.31666 10.2128 6.44 9.79216 6.44C9.37156 6.44 8.8837 6.31666 8.44016 5.984L12.0402 1.184ZM7.58527 1.15371L-0.638732 7.10571L2.87904 11.9663L11.103 6.01429L7.58527 1.15371ZM-0.490471 7.00502C-2.50875 8.28938 -2.58959 10.8117 -1.46605 12.3565L3.38636 8.82749C3.9979 9.66835 4.04507 11.2306 2.73078 12.067L-0.490471 7.00502ZM-1.46605 12.3565C-0.242021 14.0396 2.18392 14.4597 3.89024 13.0946L0.14207 8.4094C1.20839 7.55634 2.67433 7.84844 3.38636 8.82749L-1.46605 12.3565ZM3.8037 13.1613L4.7957 12.4253L1.22061 7.60671L0.228615 8.34271L3.8037 13.1613ZM0.00815517 10.016V16.96H6.00816V10.016H0.00815517ZM0.00815517 16.96C0.00815517 19.0329 1.7033 20.728 3.77616 20.728V14.728C5.01701 14.728 6.00816 15.7192 6.00816 16.96H0.00815517ZM3.77616 20.728H9.02416V14.728H3.77616V20.728ZM6.02416 17.728V24.832H12.0242V17.728H6.02416ZM6.02416 24.832C6.02416 27.0969 7.8793 28.952 10.1442 28.952V22.952C11.193 22.952 12.0242 23.7831 12.0242 24.832H6.02416ZM10.1442 28.952H11.3922V22.952H10.1442V28.952ZM8.39499 26.0823C8.52844 29.1517 11.0587 31.608 14.1762 31.608V25.608C14.2856 25.608 14.3839 25.6963 14.3893 25.8217L8.39499 26.0823ZM14.1762 31.608C17.3491 31.608 19.7607 29.1077 19.9538 26.1472L13.9665 25.7568C13.9676 25.7401 13.9771 25.708 14.0099 25.6762C14.027 25.6597 14.0521 25.6416 14.0856 25.6277C14.1212 25.613 14.1545 25.608 14.1762 25.608V31.608ZM16.9602 28.952H23.3282V22.952H16.9602V28.952ZM20.331 26.0823C20.4644 29.1517 22.9947 31.608 26.1122 31.608V25.608C26.2216 25.608 26.3199 25.6963 26.3253 25.8217L20.331 26.0823ZM26.1122 31.608C29.2198 31.608 31.7288 29.1294 31.8613 26.0823L25.867 25.8217C25.8698 25.7577 25.8987 25.7064 25.9299 25.6762C25.9625 25.6446 26.0276 25.608 26.1122 25.608V31.608ZM28.8642 28.952H29.4402V22.952H28.8642V28.952ZM29.4402 28.952C32.1245 28.952 34.2002 26.7732 34.2002 24.192H28.2002C28.2002 23.5308 28.7398 22.952 29.4402 22.952V28.952ZM34.2002 24.192V20.096H28.2002V24.192H34.2002ZM34.2002 20.096C34.2002 19.3666 34.0761 18.5838 33.7454 17.7902L28.2069 20.0978C28.2058 20.0952 28.2043 20.0911 28.2027 20.0858C28.2012 20.0806 28.2001 20.076 28.1995 20.0729C28.199 20.0698 28.1991 20.0694 28.1993 20.0726C28.1996 20.0758 28.2002 20.0834 28.2002 20.096H34.2002ZM24.9602 18.776H27.0082V12.776H24.9602V18.776ZM27.0082 18.776C26.398 18.776 25.8084 18.4246 25.5397 17.8105L31.0366 15.4055C30.3199 13.7674 28.7063 12.776 27.0082 12.776V18.776ZM25.5272 17.7814L26.6152 20.3414L32.1371 17.9946L31.0491 15.4346L25.5272 17.7814ZM29.3762 16.168H24.9602V22.168H29.3762V16.168ZM27.9602 19.168V15.776H21.9602V19.168H27.9602ZM4.20016 10.592V16.16H10.2002V10.592H4.20016ZM7.20016 13.16H4.57616V19.16H7.20016V13.16ZM7.57616 16.16V8.928H1.57616V16.16H7.57616ZM6.33803 11.3561L11.586 7.54813L8.06228 2.69187L2.81428 6.49988L6.33803 11.3561ZM8.06228 7.54813L13.3103 11.3561L16.834 6.49988L11.586 2.69188L8.06228 7.54813ZM12.0722 8.928V16.16H18.0722V8.928H12.0722ZM15.0722 13.16H12.4482V19.16H15.0722V13.16ZM15.4482 16.16V10.592H9.44816V16.16H15.4482ZM15.4482 10.592C15.4482 8.51914 13.753 6.824 11.6802 6.824V12.824C10.4393 12.824 9.44816 11.8329 9.44816 10.592H15.4482ZM11.6802 6.824H7.96816V12.824H11.6802V6.824ZM7.96816 6.824C5.78192 6.824 4.20016 8.60171 4.20016 10.592H10.2002C10.2002 11.7503 9.25839 12.824 7.96816 12.824V6.824ZM8.73616 14.36H10.9122V8.36H8.73616V14.36ZM7.91216 11.36V16.192H13.9122V11.36H7.91216ZM10.9122 13.192H8.73616V19.192H10.9122V13.192ZM11.7362 16.192V11.36H5.73616V16.192H11.7362ZM14.1762 24.04C15.0796 24.04 15.8962 24.7582 15.8962 25.792H9.89615C9.89615 28.1698 11.8647 30.04 14.1762 30.04V24.04ZM15.8962 25.792C15.8962 26.7449 15.129 27.512 14.1762 27.512V21.512C11.8153 21.512 9.89615 23.4312 9.89615 25.792H15.8962ZM14.1762 27.512C13.2233 27.512 12.4562 26.7449 12.4562 25.792H18.4562C18.4562 23.4312 16.537 21.512 14.1762 21.512V27.512ZM12.4592 25.6558C12.4988 24.7862 13.2157 24.04 14.1762 24.04V30.04C16.4806 30.04 18.3495 28.2058 18.4531 25.9282L12.4592 25.6558ZM26.0802 24.04C26.9836 24.04 27.8002 24.7582 27.8002 25.792H21.8002C21.8002 28.1698 23.7687 30.04 26.0802 30.04V24.04ZM27.8002 25.792C27.8002 26.7449 27.033 27.512 26.0802 27.512V21.512C23.7193 21.512 21.8002 23.4312 21.8002 25.792H27.8002ZM26.0802 27.512C25.0289 27.512 24.3282 26.6448 24.3282 25.792H30.3282C30.3282 23.5312 28.5394 21.512 26.0802 21.512V27.512ZM24.3282 25.792C24.3282 24.7893 25.1456 24.04 26.0802 24.04V30.04C28.3587 30.04 30.3282 28.2027 30.3282 25.792H24.3282ZM26.6962 24.16C26.6962 23.2483 27.1218 22.5877 27.4948 22.2147C27.8679 21.8417 28.5285 21.416 29.4402 21.416V27.416C30.4799 27.416 31.2684 26.9264 31.7375 26.4573C32.2065 25.9883 32.6962 25.1997 32.6962 24.16H26.6962ZM29.4402 21.416H28.4802V27.416H29.4402V21.416ZM31.0787 22.9168C30.0715 21.1711 28.1934 20.04 26.0802 20.04V26.04C26.0549 26.04 26.0147 26.0319 25.9741 26.0083C25.9364 25.9863 25.9042 25.9544 25.8816 25.9152L31.0787 22.9168ZM26.0802 20.04C23.9143 20.04 22.0829 21.2471 21.1077 22.8725L26.2526 25.9595C26.236 25.9872 26.2211 25.9997 26.2049 26.0093C26.1825 26.0225 26.1382 26.04 26.0802 26.04V20.04ZM23.6802 21.416H16.5442V27.416H23.6802V21.416ZM19.1427 22.9168C18.1355 21.1711 16.2574 20.04 14.1442 20.04V26.04C14.1189 26.04 14.0787 26.0319 14.0381 26.0083C14.0004 25.9863 13.9682 25.9544 13.9456 25.9152L19.1427 22.9168ZM14.1442 20.04C11.9783 20.04 10.1469 21.2471 9.17168 22.8725L14.3166 25.9595C14.3 25.9872 14.2851 25.9997 14.2689 26.0093C14.2465 26.0225 14.2022 26.04 14.1442 26.04V20.04ZM11.7442 21.416H10.5282V27.416H11.7442V21.416ZM13.5282 24.416V17.728H7.52816V24.416H13.5282ZM10.5282 20.728H15.8402V14.728H10.5282V20.728ZM15.8402 20.728C17.913 20.728 19.6082 19.0329 19.6082 16.96H13.6082C13.6082 15.7191 14.5993 14.728 15.8402 14.728V20.728ZM19.6082 16.96V13.888H13.6082V16.96H19.6082ZM16.6082 16.888H23.4242V10.888H16.6082V16.888ZM20.4242 13.888V19.424H26.4242V13.888H20.4242ZM20.4242 19.424C20.4242 21.7529 22.3433 23.672 24.6722 23.672V17.672C25.2041 17.672 25.6362 17.8974 25.9175 18.1787C26.1988 18.46 26.4242 18.892 26.4242 19.424H20.4242ZM24.6722 23.672H29.6642V17.672H24.6722V23.672ZM26.6642 20.672V24.16H32.6642V20.672H26.6642ZM29.6642 27.16H29.6962V21.16H29.6642V27.16Z" fill="black" mask="url(#path-1-inside-1_1259_906)"/>
<mask id="path-3-inside-2_1259_906" fill="white">
<path d="M19.6482 17.664C19.3602 17.376 18.8802 17.376 18.5922 17.664C18.3042 17.952 18.3042 18.432 18.5922 18.72L19.2642 19.392H14.6242C14.2082 19.392 13.8882 19.712 13.8882 20.128C13.8882 20.544 14.2082 20.864 14.6242 20.864H19.2642L18.5922 21.536C18.3042 21.824 18.3042 22.304 18.5922 22.592C18.7202 22.752 18.9122 22.816 19.1042 22.816C19.2962 22.816 19.4882 22.752 19.6162 22.592L21.5362 20.672C21.6642 20.544 21.7602 20.352 21.7602 20.16C21.7602 19.968 21.6962 19.776 21.5362 19.648L19.6482 17.664Z"/>
</mask>
<path d="M19.6482 17.664C19.3602 17.376 18.8802 17.376 18.5922 17.664C18.3042 17.952 18.3042 18.432 18.5922 18.72L19.2642 19.392H14.6242C14.2082 19.392 13.8882 19.712 13.8882 20.128C13.8882 20.544 14.2082 20.864 14.6242 20.864H19.2642L18.5922 21.536C18.3042 21.824 18.3042 22.304 18.5922 22.592C18.7202 22.752 18.9122 22.816 19.1042 22.816C19.2962 22.816 19.4882 22.752 19.6162 22.592L21.5362 20.672C21.6642 20.544 21.7602 20.352 21.7602 20.16C21.7602 19.968 21.6962 19.776 21.5362 19.648L19.6482 17.664Z" fill="black"/>
<path d="M19.6482 17.664L21.8214 15.5959L21.7958 15.569L21.7695 15.5427L19.6482 17.664ZM18.5922 18.72L16.4709 20.8413L16.4709 20.8413L18.5922 18.72ZM19.2642 19.392V22.392H26.5068L21.3855 17.2707L19.2642 19.392ZM19.2642 20.864L21.3855 22.9853L26.5068 17.864H19.2642V20.864ZM18.5922 21.536L20.7135 23.6573L20.7135 23.6573L18.5922 21.536ZM18.5922 22.592L20.9348 20.7179L20.831 20.5882L20.7135 20.4707L18.5922 22.592ZM19.6162 22.592L17.4949 20.4707L17.3774 20.5882L17.2736 20.7179L19.6162 22.592ZM21.5362 20.672L23.6575 22.7933L23.6575 22.7933L21.5362 20.672ZM21.5362 19.648L19.3629 21.7161L19.5032 21.8635L19.6621 21.9906L21.5362 19.648ZM21.7695 15.5427C20.3099 14.0831 17.9304 14.0831 16.4709 15.5427L20.7135 19.7853C19.8299 20.6689 18.4104 20.6689 17.5269 19.7853L21.7695 15.5427ZM16.4709 15.5427C15.0113 17.0022 15.0113 19.3817 16.4709 20.8413L20.7135 16.5987C21.5971 17.4822 21.5971 18.9017 20.7135 19.7853L16.4709 15.5427ZM16.4709 20.8413L17.1429 21.5133L21.3855 17.2707L20.7135 16.5987L16.4709 20.8413ZM19.2642 16.392H14.6242V22.392H19.2642V16.392ZM14.6242 16.392C12.5513 16.392 10.8882 18.0551 10.8882 20.128H16.8882C16.8882 21.3688 15.865 22.392 14.6242 22.392V16.392ZM10.8882 20.128C10.8882 22.2009 12.5513 23.864 14.6242 23.864V17.864C15.865 17.864 16.8882 18.8871 16.8882 20.128H10.8882ZM14.6242 23.864H19.2642V17.864H14.6242V23.864ZM17.1429 18.7427L16.4709 19.4147L20.7135 23.6573L21.3855 22.9853L17.1429 18.7427ZM16.4709 19.4147C15.0113 20.8742 15.0113 23.2537 16.4709 24.7133L20.7135 20.4707C21.5971 21.3542 21.5971 22.7737 20.7135 23.6573L16.4709 19.4147ZM16.2496 24.4661C17.102 25.5317 18.2821 25.816 19.1042 25.816V19.816C19.5423 19.816 20.3383 19.9723 20.9348 20.7179L16.2496 24.4661ZM19.1042 25.816C19.9263 25.816 21.1063 25.5317 21.9588 24.4661L17.2736 20.7179C17.87 19.9723 18.6661 19.816 19.1042 19.816V25.816ZM21.7375 24.7133L23.6575 22.7933L19.4149 18.5507L17.4949 20.4707L21.7375 24.7133ZM23.6575 22.7933C24.24 22.2108 24.7602 21.2885 24.7602 20.16H18.7602C18.7602 19.7624 18.857 19.4363 18.9651 19.1986C19.0731 18.9608 19.2231 18.7424 19.4149 18.5507L23.6575 22.7933ZM24.7602 20.16C24.7602 19.3379 24.4759 18.1579 23.4103 17.3054L19.6621 21.9906C18.9165 21.3941 18.7602 20.598 18.7602 20.16H24.7602ZM23.7094 17.5799L21.8214 15.5959L17.4749 19.7321L19.3629 21.7161L23.7094 17.5799Z" fill="black" mask="url(#path-3-inside-2_1259_906)"/>
</svg>
