<svg width="32" height="32" viewBox="0 0 32 32" fill="none" xmlns="http://www.w3.org/2000/svg">
<path d="M3.75 6.1875C5.02467 6.1875 6.0625 7.22533 6.0625 8.5C6.0625 9.77467 5.02467 10.8125 3.75 10.8125C2.47533 10.8125 1.4375 9.77467 1.4375 8.5C1.4375 7.22533 2.47533 6.1875 3.75 6.1875ZM2.3125 8.5C2.3125 9.29308 2.95692 9.9375 3.75 9.9375C4.54308 9.9375 5.1875 9.29308 5.1875 8.5C5.1875 7.70692 4.54308 7.0625 3.75 7.0625C2.95692 7.0625 2.3125 7.70692 2.3125 8.5Z" fill="black" stroke="black"/>
<path d="M0.546217 19.9457L0.54617 19.9456C0.515803 19.8849 0.5 19.8179 0.5 19.75V15.0625C0.5 13.2709 1.95839 11.8125 3.75 11.8125C5.54161 11.8125 7 13.2709 7 15.0625V19.75C7 19.8179 6.9842 19.8849 6.95383 19.9456L6.95378 19.9457L6.11528 21.6227L6.0625 21.7283V21.8463V29.125C6.0625 29.3666 5.86661 29.5625 5.625 29.5625H1.875C1.63339 29.5625 1.4375 29.3666 1.4375 29.125V21.8463V21.7283L1.38472 21.6227L0.546217 19.9457ZM6.07222 19.7523L6.125 19.6467V19.5287V15.0625C6.125 13.7525 5.06002 12.6875 3.75 12.6875C2.43998 12.6875 1.375 13.7525 1.375 15.0625V19.5287V19.6467L1.42778 19.7523L2.26628 21.4293L2.26633 21.4294C2.2967 21.4901 2.3125 21.5571 2.3125 21.625V28.1875V28.6875H2.8125H4.6875H5.1875V28.1875V21.625C5.1875 21.5571 5.2033 21.4901 5.23367 21.4294L5.23372 21.4293L6.07222 19.7523Z" fill="black" stroke="black"/>
<path d="M31.0625 8.5C31.0625 6.94919 29.8008 5.6875 28.25 5.6875C26.6992 5.6875 25.4375 6.94919 25.4375 8.5C25.4375 10.0508 26.6992 11.3125 28.25 11.3125C29.8008 11.3125 31.0625 10.0508 31.0625 8.5ZM28.25 9.4375C27.7331 9.4375 27.3125 9.01694 27.3125 8.5C27.3125 7.98306 27.7331 7.5625 28.25 7.5625C28.7669 7.5625 29.1875 7.98306 29.1875 8.5C29.1875 9.01694 28.7669 9.4375 28.25 9.4375Z" fill="black"/>
<path d="M28.25 11.3125C26.1823 11.3125 24.5 12.9948 24.5 15.0625V19.75C24.5 19.8956 24.5339 20.0391 24.599 20.1693L25.4375 21.8463V29.125C25.4375 29.6427 25.8572 30.0625 26.375 30.0625H30.125C30.6427 30.0625 31.0625 29.6427 31.0625 29.125V21.8463L31.901 20.1693C31.9661 20.0391 32 19.8956 32 19.75V15.0625C32 12.9948 30.3177 11.3125 28.25 11.3125ZM30.125 19.5287L29.2865 21.2057C29.2214 21.3359 29.1875 21.4794 29.1875 21.625V28.1875H27.3125V21.625C27.3125 21.4794 27.2786 21.3359 27.2135 21.2057L26.375 19.5287V15.0625C26.375 14.0286 27.2161 13.1875 28.25 13.1875C29.2839 13.1875 30.125 14.0286 30.125 15.0625V19.5287Z" fill="black"/>
<path d="M16 1.9375C11.8645 1.9375 8.5 5.302 8.5 9.4375C8.5 13.2556 11.3678 16.4162 15.0625 16.879V18.9737C13.9713 19.3607 13.1875 20.4028 13.1875 21.625V29.125C13.1875 29.6427 13.6073 30.0625 14.125 30.0625H17.875C18.3927 30.0625 18.8125 29.6427 18.8125 29.125V21.625C18.8125 20.4028 18.0287 19.3607 16.9375 18.9737V16.879C20.6322 16.4162 23.5 13.2556 23.5 9.4375C23.5 5.302 20.1355 1.9375 16 1.9375ZM16 15.0625C15.3527 15.0625 14.7307 14.9522 14.1515 14.7501C14.3007 13.8645 15.0726 13.1875 16 13.1875C16.9274 13.1875 17.6992 13.8645 17.8485 14.7501C17.2692 14.9522 16.6473 15.0625 16 15.0625ZM16.9375 28.1875H15.0625V21.625C15.0625 21.1081 15.4831 20.6875 16 20.6875C16.5169 20.6875 16.9375 21.1081 16.9375 21.625V28.1875ZM19.5342 13.8101C19.0175 12.3564 17.6287 11.3125 16 11.3125C14.3713 11.3125 12.9825 12.3564 12.4658 13.8101C11.1914 12.778 10.375 11.2014 10.375 9.4375C10.375 6.33588 12.8984 3.8125 16 3.8125C19.1016 3.8125 21.625 6.33588 21.625 9.4375C21.625 11.2014 20.8086 12.778 19.5342 13.8101Z" fill="black"/>
<path d="M18.8125 8.5C18.8125 6.94919 17.5508 5.6875 16 5.6875C14.4492 5.6875 13.1875 6.94919 13.1875 8.5C13.1875 10.0508 14.4492 11.3125 16 11.3125C17.5508 11.3125 18.8125 10.0508 18.8125 8.5ZM16 9.4375C15.4831 9.4375 15.0625 9.01694 15.0625 8.5C15.0625 7.98306 15.4831 7.5625 16 7.5625C16.5169 7.5625 16.9375 7.98306 16.9375 8.5C16.9375 9.01694 16.5169 9.4375 16 9.4375Z" fill="black"/>
</svg>
