<svg width="32" height="32" viewBox="0 0 32 32" fill="none" xmlns="http://www.w3.org/2000/svg">
<path d="M26.3599 5.875H16.625V4.3125H19.9471C20.0627 4.31518 20.1766 4.28503 20.2758 4.22555C20.3749 4.16606 20.4552 4.07969 20.5072 3.97644C20.5593 3.87319 20.581 3.7573 20.5698 3.64222C20.5587 3.52714 20.5151 3.41758 20.4442 3.32625L19.7328 2.3955L20.4442 1.46325C20.5149 1.36852 20.5581 1.25618 20.5692 1.13851C20.5803 1.02085 20.5588 0.902401 20.5071 0.796125C20.456 0.690439 20.3766 0.600981 20.2778 0.537676C20.1789 0.474371 20.0644 0.439697 19.9471 0.4375H16.0096C15.8404 0.44243 15.6798 0.512757 15.5615 0.63369C15.4431 0.754623 15.3763 0.916737 15.375 1.08594V5.875H5.64006C4.60625 5.875 3.75 6.69788 3.75 7.73175V30.9141C3.7525 31.0838 3.82048 31.2461 3.93975 31.3669C4.05901 31.4877 4.22035 31.5578 4.39006 31.5625H27.6099C27.7796 31.5578 27.941 31.4877 28.0603 31.3669C28.1795 31.2461 28.2475 31.0838 28.25 30.9141V7.73175C28.25 6.69788 27.3937 5.875 26.3599 5.875ZM16.625 1.6875H18.6851L18.45 2.00794C18.3671 2.11568 18.3221 2.24782 18.3221 2.38378C18.3221 2.51974 18.3671 2.65188 18.45 2.75962L18.6851 3.0625H16.625V1.6875ZM17.875 30.3125H14.125V25.3739C14.125 25.0293 14.3781 24.75 14.7227 24.75H17.2773C17.6219 24.75 17.875 25.0293 17.875 25.3739V30.3125ZM27 30.3125H19.125V25.3739C19.1277 25.1293 19.082 24.8865 18.9905 24.6596C18.8989 24.4327 18.7633 24.2262 18.5915 24.052C18.4198 23.8778 18.2152 23.7393 17.9896 23.6446C17.764 23.5498 17.5219 23.5007 17.2773 23.5H14.7227C14.4781 23.5007 14.236 23.5498 14.0104 23.6446C13.7848 23.7393 13.5802 23.8778 13.4085 24.052C13.2367 24.2262 13.1011 24.4327 13.0095 24.6596C12.918 24.8865 12.8723 25.1293 12.875 25.3739V30.3125H5V7.73175C5 7.38713 5.29544 7.125 5.64006 7.125H26.3599C26.7046 7.125 27 7.38713 27 7.73175V30.3125Z" fill="black"/>
<path d="M25.3125 16.9375C25.3125 16.7717 25.2467 16.6128 25.1294 16.4956C25.0122 16.3783 24.8533 16.3125 24.6875 16.3125H21C20.8342 16.3125 20.6753 16.3783 20.5581 16.4956C20.4408 16.6128 20.375 16.7717 20.375 16.9375V20.5C20.375 20.6658 20.4408 20.8247 20.5581 20.9419C20.6753 21.0592 20.8342 21.125 21 21.125H24.6875C24.8533 21.125 25.0122 21.0592 25.1294 20.9419C25.2467 20.8247 25.3125 20.6658 25.3125 20.5V16.9375ZM24.0625 19.875H21.625V17.5625H24.0625V19.875Z" fill="black"/>
<path d="M18.75 16.9375C18.75 16.7717 18.6842 16.6128 18.5669 16.4956C18.4497 16.3783 18.2908 16.3125 18.125 16.3125H13.875C13.7092 16.3125 13.5503 16.3783 13.4331 16.4956C13.3158 16.6128 13.25 16.7717 13.25 16.9375V20.5C13.25 20.6658 13.3158 20.8247 13.4331 20.9419C13.5503 21.0592 13.7092 21.125 13.875 21.125H18.125C18.2908 21.125 18.4497 21.0592 18.5669 20.9419C18.6842 20.8247 18.75 20.6658 18.75 20.5V16.9375ZM17.5 19.875H14.5V17.5625H17.5V19.875Z" fill="black"/>
<path d="M11.625 16.9375C11.625 16.7717 11.5592 16.6128 11.4419 16.4956C11.3247 16.3783 11.1658 16.3125 11 16.3125H7.3125C7.14674 16.3125 6.98777 16.3783 6.87056 16.4956C6.75335 16.6128 6.6875 16.7717 6.6875 16.9375V20.5C6.6875 20.6658 6.75335 20.8247 6.87056 20.9419C6.98777 21.0592 7.14674 21.125 7.3125 21.125H11C11.1658 21.125 11.3247 21.0592 11.4419 20.9419C11.5592 20.8247 11.625 20.6658 11.625 20.5V16.9375ZM10.375 19.875H7.9375V17.5625H10.375V19.875Z" fill="black"/>
<path d="M25.3125 24.125C25.3125 23.9592 25.2467 23.8003 25.1294 23.6831C25.0122 23.5658 24.8533 23.5 24.6875 23.5H21C20.8342 23.5 20.6753 23.5658 20.5581 23.6831C20.4408 23.8003 20.375 23.9592 20.375 24.125V27.6875C20.375 27.8533 20.4408 28.0122 20.5581 28.1294C20.6753 28.2467 20.8342 28.3125 21 28.3125H24.6875C24.8533 28.3125 25.0122 28.2467 25.1294 28.1294C25.2467 28.0122 25.3125 27.8533 25.3125 27.6875V24.125ZM24.0625 27.0625H21.625V24.75H24.0625V27.0625Z" fill="black"/>
<path d="M11.625 24.125C11.625 23.9592 11.5592 23.8003 11.4419 23.6831C11.3247 23.5658 11.1658 23.5 11 23.5H7.3125C7.14674 23.5 6.98777 23.5658 6.87056 23.6831C6.75335 23.8003 6.6875 23.9592 6.6875 24.125V27.6875C6.6875 27.8533 6.75335 28.0122 6.87056 28.1294C6.98777 28.2467 7.14674 28.3125 7.3125 28.3125H11C11.1658 28.3125 11.3247 28.2467 11.4419 28.1294C11.5592 28.0122 11.625 27.8533 11.625 27.6875V24.125ZM10.375 27.0625H7.9375V24.75H10.375V27.0625Z" fill="black"/>
<path d="M25.3125 9.6875C25.3125 9.52174 25.2467 9.36277 25.1294 9.24556C25.0122 9.12835 24.8533 9.0625 24.6875 9.0625H21C20.8342 9.0625 20.6753 9.12835 20.5581 9.24556C20.4408 9.36277 20.375 9.52174 20.375 9.6875V13.25C20.375 13.4158 20.4408 13.5747 20.5581 13.6919C20.6753 13.8092 20.8342 13.875 21 13.875H24.6875C24.8533 13.875 25.0122 13.8092 25.1294 13.6919C25.2467 13.5747 25.3125 13.4158 25.3125 13.25V9.6875ZM24.0625 12.625H21.625V10.3125H24.0625V12.625Z" fill="black"/>
<path d="M18.75 9.6875C18.75 9.52174 18.6842 9.36277 18.5669 9.24556C18.4497 9.12835 18.2908 9.0625 18.125 9.0625H13.875C13.7092 9.0625 13.5503 9.12835 13.4331 9.24556C13.3158 9.36277 13.25 9.52174 13.25 9.6875V13.25C13.25 13.4158 13.3158 13.5747 13.4331 13.6919C13.5503 13.8092 13.7092 13.875 13.875 13.875H18.125C18.2908 13.875 18.4497 13.8092 18.5669 13.6919C18.6842 13.5747 18.75 13.4158 18.75 13.25V9.6875ZM17.5 12.625H14.5V10.3125H17.5V12.625Z" fill="black"/>
<path d="M11.625 9.6875C11.625 9.52174 11.5592 9.36277 11.4419 9.24556C11.3247 9.12835 11.1658 9.0625 11 9.0625H7.3125C7.14674 9.0625 6.98777 9.12835 6.87056 9.24556C6.75335 9.36277 6.6875 9.52174 6.6875 9.6875V13.25C6.6875 13.4158 6.75335 13.5747 6.87056 13.6919C6.98777 13.8092 7.14674 13.875 7.3125 13.875H11C11.1658 13.875 11.3247 13.8092 11.4419 13.6919C11.5592 13.5747 11.625 13.4158 11.625 13.25V9.6875ZM10.375 12.625H7.9375V10.3125H10.375V12.625Z" fill="black"/>
</svg>
