<svg width="32" height="32" viewBox="0 0 32 32" fill="none" xmlns="http://www.w3.org/2000/svg">
<mask id="path-1-inside-1_1259_131" fill="white">
<path d="M5.28657 17.8559H13.4882C13.7003 17.8559 13.9038 17.7716 14.0539 17.6216C14.2039 17.4715 14.2882 17.268 14.2882 17.0559C14.2882 16.8437 14.2039 16.6402 14.0539 16.4902C13.9038 16.3402 13.7003 16.2559 13.4882 16.2559H5.28657C4.89139 16.2854 4.49437 16.233 4.12035 16.1021C3.74633 15.9711 3.40336 15.7644 3.1129 15.4948C2.82244 15.2252 2.59073 14.8986 2.43229 14.5354C2.27384 14.1722 2.19206 13.7802 2.19206 13.3839C2.19206 12.9876 2.27384 12.5956 2.43229 12.2323C2.59073 11.8691 2.82244 11.5425 3.1129 11.2729C3.40336 11.0033 3.74633 10.7966 4.12035 10.6657C4.49437 10.5347 4.89139 10.4824 5.28657 10.5119H6.19537V13.7823C6.19532 13.934 6.23841 14.0826 6.31961 14.2107C6.40081 14.3389 6.51677 14.4413 6.65396 14.506C6.79116 14.5708 6.94394 14.5952 7.09447 14.5764C7.24501 14.5576 7.3871 14.4964 7.50417 14.3999L10.2114 12.1855L12.9154 14.3999C13.0325 14.4954 13.1743 14.5558 13.3243 14.574C13.4743 14.5923 13.6264 14.5677 13.7631 14.5031C13.8997 14.4384 14.0152 14.3364 14.0962 14.2089C14.1773 14.0813 14.2205 13.9334 14.221 13.7823V10.5119H18.2402C18.4523 10.5119 18.6558 10.4276 18.8059 10.2776C18.9559 10.1275 19.0402 9.92404 19.0402 9.71187C19.0402 9.4997 18.9559 9.29622 18.8059 9.14619C18.6558 8.99616 18.4523 8.91187 18.2402 8.91187H14.221V6.03187C14.221 5.8197 14.1367 5.61621 13.9867 5.46619C13.8366 5.31616 13.6331 5.23187 13.421 5.23187H6.99537C6.7832 5.23187 6.57971 5.31616 6.42968 5.46619C6.27965 5.61621 6.19537 5.8197 6.19537 6.03187V8.91187H5.28657C4.89139 8.94139 4.49437 8.88903 4.12035 8.75808C3.74633 8.62713 3.40336 8.42039 3.1129 8.15082C2.82244 7.88124 2.59073 7.55462 2.43229 7.1914C2.27384 6.82817 2.19206 6.43615 2.19206 6.03987C2.19206 5.64359 2.27384 5.25157 2.43229 4.88834C2.59073 4.52512 2.82244 4.1985 3.1129 3.92892C3.40336 3.65935 3.74633 3.45262 4.12035 3.32166C4.49437 3.19071 4.89139 3.13835 5.28657 3.16787H27.4402C27.6523 3.16787 27.8558 3.08359 28.0059 2.93356C28.1559 2.78353 28.2402 2.58004 28.2402 2.36787C28.2402 2.1557 28.1559 1.95221 28.0059 1.80219C27.8558 1.65216 27.6523 1.56787 27.4402 1.56787H5.28657C4.33619 1.57166 3.41165 1.87757 2.64658 2.4414C1.88152 3.00523 1.31558 3.79775 1.03058 4.70439C0.745587 5.61104 0.7563 6.58483 1.06117 7.48498C1.36605 8.38513 1.94928 9.16501 2.72657 9.71187C2.13188 10.1221 1.64572 10.6706 1.30988 11.3102C0.974046 11.9498 0.798584 12.6614 0.798584 13.3839C0.798584 14.1063 0.974046 14.8179 1.30988 15.4576C1.64572 16.0972 2.13188 16.6457 2.72657 17.0559C1.94928 17.6027 1.36605 18.3826 1.06117 19.2828C0.7563 20.1829 0.745587 21.1567 1.03058 22.0633C1.31558 22.97 1.88152 23.7625 2.64658 24.3263C3.41165 24.8902 4.33619 25.1961 5.28657 25.1999H9.29617C9.50834 25.1999 9.71183 25.1156 9.86185 24.9656C10.0119 24.8155 10.0962 24.612 10.0962 24.3999C10.0962 24.1877 10.0119 23.9842 9.86185 23.8342C9.71183 23.6842 9.50834 23.5999 9.29617 23.5999H5.28657C4.89139 23.6294 4.49437 23.577 4.12035 23.4461C3.74633 23.3151 3.40336 23.1084 3.1129 22.8388C2.82244 22.5692 2.59073 22.2426 2.43229 21.8794C2.27384 21.5162 2.19206 21.1242 2.19206 20.7279C2.19206 20.3316 2.27384 19.9396 2.43229 19.5763C2.59073 19.2131 2.82244 18.8865 3.1129 18.6169C3.40336 18.3473 3.74633 18.1406 4.12035 18.0097C4.49437 17.8787 4.89139 17.8264 5.28657 17.8559ZM7.79537 6.84147H12.621V12.0959L10.701 10.5375C10.5579 10.4202 10.3787 10.3561 10.1938 10.3561C10.0088 10.3561 9.82959 10.4202 9.68657 10.5375L7.76657 12.0991L7.79537 6.84147Z"/>
</mask>
<path d="M5.28657 17.8559H13.4882C13.7003 17.8559 13.9038 17.7716 14.0539 17.6216C14.2039 17.4715 14.2882 17.268 14.2882 17.0559C14.2882 16.8437 14.2039 16.6402 14.0539 16.4902C13.9038 16.3402 13.7003 16.2559 13.4882 16.2559H5.28657C4.89139 16.2854 4.49437 16.233 4.12035 16.1021C3.74633 15.9711 3.40336 15.7644 3.1129 15.4948C2.82244 15.2252 2.59073 14.8986 2.43229 14.5354C2.27384 14.1722 2.19206 13.7802 2.19206 13.3839C2.19206 12.9876 2.27384 12.5956 2.43229 12.2323C2.59073 11.8691 2.82244 11.5425 3.1129 11.2729C3.40336 11.0033 3.74633 10.7966 4.12035 10.6657C4.49437 10.5347 4.89139 10.4824 5.28657 10.5119H6.19537V13.7823C6.19532 13.934 6.23841 14.0826 6.31961 14.2107C6.40081 14.3389 6.51677 14.4413 6.65396 14.506C6.79116 14.5708 6.94394 14.5952 7.09447 14.5764C7.24501 14.5576 7.3871 14.4964 7.50417 14.3999L10.2114 12.1855L12.9154 14.3999C13.0325 14.4954 13.1743 14.5558 13.3243 14.574C13.4743 14.5923 13.6264 14.5677 13.7631 14.5031C13.8997 14.4384 14.0152 14.3364 14.0962 14.2089C14.1773 14.0813 14.2205 13.9334 14.221 13.7823V10.5119H18.2402C18.4523 10.5119 18.6558 10.4276 18.8059 10.2776C18.9559 10.1275 19.0402 9.92404 19.0402 9.71187C19.0402 9.4997 18.9559 9.29622 18.8059 9.14619C18.6558 8.99616 18.4523 8.91187 18.2402 8.91187H14.221V6.03187C14.221 5.8197 14.1367 5.61621 13.9867 5.46619C13.8366 5.31616 13.6331 5.23187 13.421 5.23187H6.99537C6.7832 5.23187 6.57971 5.31616 6.42968 5.46619C6.27965 5.61621 6.19537 5.8197 6.19537 6.03187V8.91187H5.28657C4.89139 8.94139 4.49437 8.88903 4.12035 8.75808C3.74633 8.62713 3.40336 8.42039 3.1129 8.15082C2.82244 7.88124 2.59073 7.55462 2.43229 7.1914C2.27384 6.82817 2.19206 6.43615 2.19206 6.03987C2.19206 5.64359 2.27384 5.25157 2.43229 4.88834C2.59073 4.52512 2.82244 4.1985 3.1129 3.92892C3.40336 3.65935 3.74633 3.45262 4.12035 3.32166C4.49437 3.19071 4.89139 3.13835 5.28657 3.16787H27.4402C27.6523 3.16787 27.8558 3.08359 28.0059 2.93356C28.1559 2.78353 28.2402 2.58004 28.2402 2.36787C28.2402 2.1557 28.1559 1.95221 28.0059 1.80219C27.8558 1.65216 27.6523 1.56787 27.4402 1.56787H5.28657C4.33619 1.57166 3.41165 1.87757 2.64658 2.4414C1.88152 3.00523 1.31558 3.79775 1.03058 4.70439C0.745587 5.61104 0.7563 6.58483 1.06117 7.48498C1.36605 8.38513 1.94928 9.16501 2.72657 9.71187C2.13188 10.1221 1.64572 10.6706 1.30988 11.3102C0.974046 11.9498 0.798584 12.6614 0.798584 13.3839C0.798584 14.1063 0.974046 14.8179 1.30988 15.4576C1.64572 16.0972 2.13188 16.6457 2.72657 17.0559C1.94928 17.6027 1.36605 18.3826 1.06117 19.2828C0.7563 20.1829 0.745587 21.1567 1.03058 22.0633C1.31558 22.97 1.88152 23.7625 2.64658 24.3263C3.41165 24.8902 4.33619 25.1961 5.28657 25.1999H9.29617C9.50834 25.1999 9.71183 25.1156 9.86185 24.9656C10.0119 24.8155 10.0962 24.612 10.0962 24.3999C10.0962 24.1877 10.0119 23.9842 9.86185 23.8342C9.71183 23.6842 9.50834 23.5999 9.29617 23.5999H5.28657C4.89139 23.6294 4.49437 23.577 4.12035 23.4461C3.74633 23.3151 3.40336 23.1084 3.1129 22.8388C2.82244 22.5692 2.59073 22.2426 2.43229 21.8794C2.27384 21.5162 2.19206 21.1242 2.19206 20.7279C2.19206 20.3316 2.27384 19.9396 2.43229 19.5763C2.59073 19.2131 2.82244 18.8865 3.1129 18.6169C3.40336 18.3473 3.74633 18.1406 4.12035 18.0097C4.49437 17.8787 4.89139 17.8264 5.28657 17.8559ZM7.79537 6.84147H12.621V12.0959L10.701 10.5375C10.5579 10.4202 10.3787 10.3561 10.1938 10.3561C10.0088 10.3561 9.82959 10.4202 9.68657 10.5375L7.76657 12.0991L7.79537 6.84147Z" fill="black"/>
<path d="M5.28657 16.2559V13.2559H5.17469L5.06312 13.2642L5.28657 16.2559ZM5.28657 10.5119L5.06312 13.5035L5.17469 13.5119H5.28657V10.5119ZM6.19537 10.5119H9.19537V7.51187H6.19537V10.5119ZM6.19537 13.7823L9.19537 13.7832V13.7823H6.19537ZM7.50417 14.3999L5.60474 12.0777L5.59617 12.0848L7.50417 14.3999ZM10.2114 12.1855L12.1121 9.86446L10.2125 8.30878L8.31195 9.86335L10.2114 12.1855ZM12.9154 14.3999L11.0146 16.7209L11.0194 16.7248L12.9154 14.3999ZM14.221 13.7823L17.221 13.7912V13.7823H14.221ZM14.221 10.5119V7.51187H11.221V10.5119H14.221ZM14.221 8.91187H11.221V11.9119H14.221V8.91187ZM6.19537 8.91187V11.9119H9.19537V8.91187H6.19537ZM5.28657 8.91187V5.91187H5.17469L5.06312 5.9202L5.28657 8.91187ZM2.19206 6.03987H-0.807945H2.19206ZM5.28657 3.16787L5.06312 6.15954L5.17469 6.16787H5.28657V3.16787ZM27.4402 1.56787V-1.43213V1.56787ZM5.28657 1.56787V-1.43215L5.27462 -1.43211L5.28657 1.56787ZM2.72657 9.71187L4.42995 12.1814L7.97486 9.73623L4.4528 7.25828L2.72657 9.71187ZM0.798584 13.3839H-2.20142H0.798584ZM2.72657 17.0559L4.4528 19.5095L7.97486 17.0315L4.42995 14.5864L2.72657 17.0559ZM5.28657 25.1999L5.27462 28.1999H5.28657V25.1999ZM9.29617 23.5999V20.5999V23.5999ZM5.28657 23.5999V20.5999H5.17469L5.06312 20.6082L5.28657 23.5999ZM2.19206 20.7279H-0.807945H2.19206ZM7.79537 6.84147V3.84147H4.81176L4.79541 6.82504L7.79537 6.84147ZM12.621 6.84147H15.621V3.84147H12.621V6.84147ZM12.621 12.0959L10.7304 14.4252L15.621 18.3947V12.0959H12.621ZM10.701 10.5375L8.79897 12.8575L8.80465 12.8621L8.81036 12.8668L10.701 10.5375ZM9.68657 10.5375L11.5795 12.8649L11.5886 12.8575L9.68657 10.5375ZM7.76657 12.0991L4.76661 12.0826L4.73182 18.4343L9.65951 14.4265L7.76657 12.0991ZM5.28657 20.8559H13.4882V14.8559H5.28657V20.8559ZM13.4882 20.8559C14.496 20.8559 15.4625 20.4555 16.1752 19.7429L11.9325 15.5002C12.3451 15.0877 12.9047 14.8559 13.4882 14.8559V20.8559ZM16.1752 19.7429C16.8878 19.0302 17.2882 18.0637 17.2882 17.0559H11.2882C11.2882 16.4724 11.52 15.9128 11.9325 15.5002L16.1752 19.7429ZM17.2882 17.0559C17.2882 16.048 16.8878 15.0815 16.1752 14.3689L11.9325 18.6115C11.52 18.1989 11.2882 17.6394 11.2882 17.0559H17.2882ZM16.1752 14.3689C15.4625 13.6562 14.496 13.2559 13.4882 13.2559V19.2559C12.9047 19.2559 12.3451 19.0241 11.9325 18.6115L16.1752 14.3689ZM13.4882 13.2559H5.28657V19.2559H13.4882V13.2559ZM5.06312 13.2642C5.07958 13.263 5.09612 13.2652 5.11171 13.2706L3.12899 18.9335C3.89261 19.2009 4.7032 19.3078 5.51002 19.2475L5.06312 13.2642ZM5.11171 13.2706C5.1273 13.2761 5.14159 13.2847 5.15369 13.2959L1.07211 17.6937C1.66513 18.2441 2.36536 18.6662 3.12899 18.9335L5.11171 13.2706ZM5.15369 13.2959C5.16579 13.3071 5.17544 13.3208 5.18205 13.3359L-0.317476 15.7349C0.00602114 16.4765 0.479081 17.1433 1.07211 17.6937L5.15369 13.2959ZM5.18205 13.3359C5.18865 13.351 5.19206 13.3674 5.19206 13.3839H-0.807945C-0.807945 14.1929 -0.640972 14.9933 -0.317476 15.7349L5.18205 13.3359ZM5.19206 13.3839C5.19206 13.4004 5.18865 13.4167 5.18205 13.4319L-0.317476 11.0328C-0.640972 11.7744 -0.807945 12.5748 -0.807945 13.3839H5.19206ZM5.18205 13.4319C5.17544 13.447 5.16579 13.4606 5.15369 13.4718L1.07211 9.07402C0.479083 9.6244 0.00602192 10.2912 -0.317476 11.0328L5.18205 13.4319ZM5.15369 13.4718C5.14159 13.4831 5.1273 13.4917 5.11171 13.4971L3.12899 7.8342C2.36536 8.10156 1.66513 8.52364 1.07211 9.07402L5.15369 13.4718ZM5.11171 13.4971C5.09613 13.5026 5.07959 13.5048 5.06312 13.5035L5.51002 7.5202C4.70319 7.45994 3.89261 7.56684 3.12899 7.8342L5.11171 13.4971ZM5.28657 13.5119H6.19537V7.51187H5.28657V13.5119ZM3.19537 10.5119V13.7823H9.19537V10.5119H3.19537ZM3.19537 13.7813C3.19515 14.5019 3.39981 15.2077 3.78551 15.8164L8.85371 12.605C9.07701 12.9574 9.1955 13.366 9.19537 13.7832L3.19537 13.7813ZM3.78551 15.8164C4.1712 16.4251 4.72202 16.9116 5.3737 17.2191L7.93423 11.7929C8.31152 11.9709 8.63041 12.2526 8.85371 12.605L3.78551 15.8164ZM5.3737 17.2191C6.02538 17.5266 6.75107 17.6425 7.46612 17.5532L6.72283 11.5995C7.13681 11.5478 7.55694 11.6149 7.93423 11.7929L5.3737 17.2191ZM7.46612 17.5532C8.18117 17.464 8.8561 17.1732 9.41217 16.7149L5.59617 12.0848C5.91811 11.8195 6.30885 11.6511 6.72283 11.5995L7.46612 17.5532ZM9.40358 16.722L12.1108 14.5076L8.31195 9.86335L5.60475 12.0778L9.40358 16.722ZM8.31061 14.5065L11.0146 16.7209L14.8161 12.0789L12.1121 9.86446L8.31061 14.5065ZM11.0194 16.7248C11.5757 17.1785 12.2491 17.4653 12.9617 17.552L13.6868 11.596C14.0994 11.6462 14.4893 11.8123 14.8114 12.075L11.0194 16.7248ZM12.9617 17.552C13.6744 17.6388 14.397 17.5219 15.0459 17.215L12.4802 11.7912C12.8559 11.6135 13.2743 11.5458 13.6868 11.596L12.9617 17.552ZM15.0459 17.215C15.6948 16.908 16.2435 16.4235 16.6285 15.8175L11.564 12.6002C11.7869 12.2494 12.1045 11.9689 12.4802 11.7912L15.0459 17.215ZM16.6285 15.8175C17.0134 15.2116 17.2188 14.509 17.221 13.7912L11.221 13.7734C11.2222 13.3578 11.3411 12.951 11.564 12.6002L16.6285 15.8175ZM17.221 13.7823V10.5119H11.221V13.7823H17.221ZM14.221 13.5119H18.2402V7.51187H14.221V13.5119ZM18.2402 13.5119C19.248 13.5119 20.2145 13.1115 20.9272 12.3989L16.6845 8.15624C17.0971 7.74365 17.6567 7.51187 18.2402 7.51187V13.5119ZM20.9272 12.3989C21.6398 11.6862 22.0402 10.7197 22.0402 9.71187H16.0402C16.0402 9.1284 16.2719 8.56882 16.6845 8.15624L20.9272 12.3989ZM22.0402 9.71187C22.0402 8.70405 21.6398 7.73751 20.9272 7.02487L16.6845 11.2675C16.2719 10.8549 16.0402 10.2953 16.0402 9.71187H22.0402ZM20.9272 7.02487C20.2145 6.31223 19.248 5.91187 18.2402 5.91187V11.9119C17.6567 11.9119 17.0971 11.6801 16.6845 11.2675L20.9272 7.02487ZM18.2402 5.91187H14.221V11.9119H18.2402V5.91187ZM17.221 8.91187V6.03187H11.221V8.91187H17.221ZM17.221 6.03187C17.221 5.02405 16.8206 4.05751 16.108 3.34487L11.8653 7.58751C11.4527 7.17492 11.221 6.61534 11.221 6.03187H17.221ZM16.108 3.34487C15.3953 2.63223 14.4288 2.23187 13.421 2.23187V8.23187C12.8375 8.23187 12.2779 8.00009 11.8653 7.58751L16.108 3.34487ZM13.421 2.23187H6.99537V8.23187H13.421V2.23187ZM6.99537 2.23187C5.98755 2.23187 5.021 2.63223 4.30836 3.34487L8.551 7.58751C8.13842 8.00009 7.57885 8.23187 6.99537 8.23187V2.23187ZM4.30836 3.34487C3.59573 4.0575 3.19537 5.02405 3.19537 6.03187H9.19537C9.19537 6.61535 8.96358 7.17493 8.551 7.58751L4.30836 3.34487ZM3.19537 6.03187V8.91187H9.19537V6.03187H3.19537ZM6.19537 5.91187H5.28657V11.9119H6.19537V5.91187ZM5.06312 5.9202C5.07958 5.91897 5.09613 5.92116 5.11171 5.92661L3.12899 11.5895C3.89261 11.8569 4.70319 11.9638 5.51002 11.9035L5.06312 5.9202ZM5.11171 5.92661C5.1273 5.93207 5.14159 5.94068 5.15369 5.95191L1.07211 10.3497C1.66513 10.9001 2.36536 11.3222 3.12899 11.5895L5.11171 5.92661ZM5.15369 5.95191C5.16579 5.96315 5.17544 5.97676 5.18205 5.99189L-0.317476 8.3909C0.00602114 9.13249 0.479081 9.79934 1.07211 10.3497L5.15369 5.95191ZM5.18205 5.99189C5.18865 6.00702 5.19206 6.02336 5.19206 6.03987H-0.807945C-0.807945 6.84895 -0.640972 7.64932 -0.317476 8.3909L5.18205 5.99189ZM5.19206 6.03987C5.19206 6.05638 5.18865 6.07272 5.18205 6.08785L-0.317476 3.68884C-0.640972 4.43043 -0.807945 5.2308 -0.807945 6.03987H5.19206ZM5.18205 6.08785C5.17544 6.10299 5.16579 6.1166 5.15369 6.12783L1.07211 1.73002C0.479082 2.2804 0.00602132 2.94725 -0.317476 3.68884L5.18205 6.08785ZM5.15369 6.12783C5.14158 6.13906 5.12729 6.14767 5.11171 6.15313L3.12899 0.490197C2.36536 0.757559 1.66513 1.17964 1.07211 1.73002L5.15369 6.12783ZM5.11171 6.15313C5.09613 6.15859 5.07958 6.16077 5.06312 6.15954L5.51002 0.176204C4.70319 0.115941 3.89261 0.222835 3.12899 0.490197L5.11171 6.15313ZM5.28657 6.16787H27.4402V0.167871H5.28657V6.16787ZM27.4402 6.16787C28.448 6.16787 29.4145 5.76752 30.1272 5.05488L25.8845 0.812236C26.2971 0.399654 26.8567 0.167871 27.4402 0.167871V6.16787ZM30.1272 5.05488C30.8398 4.34223 31.2402 3.37569 31.2402 2.36787H25.2402C25.2402 1.7844 25.472 1.22482 25.8845 0.812236L30.1272 5.05488ZM31.2402 2.36787C31.2402 1.36005 30.8398 0.393508 30.1272 -0.319135L25.8845 3.92351C25.4719 3.51092 25.2402 2.95134 25.2402 2.36787H31.2402ZM30.1272 -0.319135C29.4145 -1.03177 28.448 -1.43213 27.4402 -1.43213V4.56787C26.8567 4.56787 26.2971 4.33609 25.8845 3.92351L30.1272 -0.319135ZM27.4402 -1.43213H5.28657V4.56787H27.4402V-1.43213ZM5.27462 -1.43211C3.68784 -1.42579 2.14417 -0.915013 0.866788 0.0263782L4.42637 4.85642C4.67912 4.67016 4.98455 4.5691 5.29851 4.56785L5.27462 -1.43211ZM0.866788 0.0263782C-0.410596 0.967769 -1.35551 2.291 -1.83135 3.80477L3.89252 5.60402C3.98667 5.3045 4.17363 5.04269 4.42637 4.85642L0.866788 0.0263782ZM-1.83135 3.80477C-2.30719 5.31854 -2.28931 6.94442 -1.78028 8.44735L3.90262 6.52261C3.80191 6.22523 3.79837 5.90354 3.89252 5.60402L-1.83135 3.80477ZM-1.78028 8.44735C-1.27125 9.95029 -0.297448 11.2524 1.00034 12.1655L4.4528 7.25828C4.19602 7.07762 4.00334 6.81998 3.90262 6.52261L-1.78028 8.44735ZM1.02319 7.24236C0.0285604 7.92842 -0.784559 8.84578 -1.34626 9.91558L3.96602 12.7048C4.076 12.4953 4.2352 12.3157 4.42995 12.1814L1.02319 7.24236ZM-1.34626 9.91558C-1.90795 10.9854 -2.20142 12.1756 -2.20142 13.3839H3.79858C3.79858 13.1473 3.85604 12.9143 3.96602 12.7048L-1.34626 9.91558ZM-2.20142 13.3839C-2.20142 14.5922 -1.90795 15.7824 -1.34626 16.8522L3.96602 14.063C3.85604 13.8535 3.79858 13.6204 3.79858 13.3839H-2.20142ZM-1.34626 16.8522C-0.78456 17.922 0.0285594 18.8393 1.02319 19.5254L4.42995 14.5864C4.23521 14.452 4.076 14.2724 3.96602 14.063L-1.34626 16.8522ZM1.00034 14.6023C-0.297448 15.5153 -1.27125 16.8175 -1.78028 18.3204L3.90262 20.2451C4.00334 19.9478 4.19602 19.6901 4.4528 19.5095L1.00034 14.6023ZM-1.78028 18.3204C-2.28931 19.8233 -2.30719 21.4492 -1.83135 22.963L3.89252 21.1637C3.79837 20.8642 3.80191 20.5425 3.90262 20.2451L-1.78028 18.3204ZM-1.83135 22.963C-1.35551 24.4767 -0.410597 25.8 0.866788 26.7414L4.42637 21.9113C4.17363 21.7251 3.98667 21.4632 3.89252 21.1637L-1.83135 22.963ZM0.866788 26.7414C2.14417 27.6828 3.68784 28.1935 5.27462 28.1998L5.29851 22.1999C4.98455 22.1986 4.67912 22.0976 4.42637 21.9113L0.866788 26.7414ZM5.28657 28.1999H9.29617V22.1999H5.28657V28.1999ZM9.29617 28.1999C10.304 28.1999 11.2705 27.7995 11.9832 27.0869L7.74053 22.8442C8.15312 22.4317 8.7127 22.1999 9.29617 22.1999V28.1999ZM11.9832 27.0869C12.6958 26.3742 13.0962 25.4077 13.0962 24.3999H7.09617C7.09617 23.8164 7.32795 23.2568 7.74053 22.8442L11.9832 27.0869ZM13.0962 24.3999C13.0962 23.392 12.6958 22.4255 11.9832 21.7129L7.74053 25.9555C7.32795 25.5429 7.09617 24.9833 7.09617 24.3999H13.0962ZM11.9832 21.7129C11.2705 21.0002 10.304 20.5999 9.29617 20.5999V26.5999C8.7127 26.5999 8.15312 26.3681 7.74053 25.9555L11.9832 21.7129ZM9.29617 20.5999H5.28657V26.5999H9.29617V20.5999ZM5.06312 20.6082C5.07958 20.607 5.09612 20.6092 5.11171 20.6146L3.12899 26.2775C3.89261 26.5449 4.7032 26.6518 5.51002 26.5915L5.06312 20.6082ZM5.11171 20.6146C5.1273 20.6201 5.14159 20.6287 5.15369 20.6399L1.07211 25.0377C1.66513 25.5881 2.36536 26.0102 3.12899 26.2775L5.11171 20.6146ZM5.15369 20.6399C5.16579 20.6511 5.17544 20.6648 5.18205 20.6799L-0.317476 23.0789C0.00602114 23.8205 0.479081 24.4873 1.07211 25.0377L5.15369 20.6399ZM5.18205 20.6799C5.18865 20.695 5.19206 20.7114 5.19206 20.7279H-0.807945C-0.807945 21.5369 -0.640972 22.3373 -0.317476 23.0789L5.18205 20.6799ZM5.19206 20.7279C5.19206 20.7444 5.18865 20.7607 5.18205 20.7759L-0.317476 18.3768C-0.640973 19.1184 -0.807945 19.9188 -0.807945 20.7279H5.19206ZM5.18205 20.7759C5.17544 20.791 5.16579 20.8046 5.15369 20.8158L1.07211 16.418C0.479081 16.9684 0.00602114 17.6353 -0.317476 18.3768L5.18205 20.7759ZM5.15369 20.8158C5.14158 20.8271 5.12729 20.8357 5.11171 20.8411L3.12899 15.1782C2.36537 15.4456 1.66514 15.8676 1.07211 16.418L5.15369 20.8158ZM5.11171 20.8411C5.09613 20.8466 5.07959 20.8488 5.06312 20.8475L5.51002 14.8642C4.70319 14.8039 3.89261 14.9108 3.12899 15.1782L5.11171 20.8411ZM7.79537 9.84147H12.621V3.84147H7.79537V9.84147ZM9.62097 6.84147V12.0959H15.621V6.84147H9.62097ZM14.5116 9.76658L12.5916 8.20818L8.81036 12.8668L10.7304 14.4252L14.5116 9.76658ZM12.603 8.21747C11.9236 7.66052 11.0723 7.35614 10.1938 7.35614V13.3561C9.68516 13.3561 9.19228 13.1799 8.79897 12.8575L12.603 8.21747ZM10.1938 7.35614C9.31527 7.35614 8.46392 7.66052 7.78457 8.21747L11.5886 12.8575C11.1953 13.1799 10.7024 13.3561 10.1938 13.3561V7.35614ZM7.79362 8.21008L5.87362 9.77168L9.65951 14.4265L11.5795 12.8649L7.79362 8.21008ZM10.7665 12.1155L10.7953 6.8579L4.79541 6.82504L4.76661 12.0826L10.7665 12.1155Z" fill="black" mask="url(#path-1-inside-1_1259_131)"/>
<mask id="path-3-inside-2_1259_131" fill="white">
<path d="M23.1584 23.6001C22.9462 23.6001 22.7427 23.6844 22.5927 23.8344C22.4427 23.9844 22.3584 24.1879 22.3584 24.4001C22.3584 24.6123 22.4427 24.8158 22.5927 24.9658C22.7427 25.1158 22.9462 25.2001 23.1584 25.2001H27.44C27.6522 25.2001 27.8557 25.1158 28.0057 24.9658C28.1557 24.8158 28.24 24.6123 28.24 24.4001C28.24 24.1879 28.1557 23.9844 28.0057 23.8344C27.8557 23.6844 27.6522 23.6001 27.44 23.6001H23.1584Z"/>
</mask>
<path d="M23.1584 23.6001C22.9462 23.6001 22.7427 23.6844 22.5927 23.8344C22.4427 23.9844 22.3584 24.1879 22.3584 24.4001C22.3584 24.6123 22.4427 24.8158 22.5927 24.9658C22.7427 25.1158 22.9462 25.2001 23.1584 25.2001H27.44C27.6522 25.2001 27.8557 25.1158 28.0057 24.9658C28.1557 24.8158 28.24 24.6123 28.24 24.4001C28.24 24.1879 28.1557 23.9844 28.0057 23.8344C27.8557 23.6844 27.6522 23.6001 27.44 23.6001H23.1584Z" fill="black"/>
<path d="M22.3584 24.4001L19.3584 24.4001L22.3584 24.4001ZM27.44 23.6001V20.6001V23.6001ZM23.1584 20.6001C22.1506 20.6001 21.184 21.0004 20.4714 21.7131L24.714 25.9557C24.3014 26.3683 23.7419 26.6001 23.1584 26.6001V20.6001ZM20.4714 21.7131C19.7587 22.4257 19.3584 23.3923 19.3584 24.4001L25.3584 24.4001C25.3584 24.9836 25.1266 25.5431 24.714 25.9557L20.4714 21.7131ZM19.3584 24.4001C19.3584 25.4079 19.7587 26.3745 20.4714 27.0871L24.714 22.8445C25.1266 23.2571 25.3584 23.8166 25.3584 24.4001L19.3584 24.4001ZM20.4714 27.0871C21.184 27.7998 22.1506 28.2001 23.1584 28.2001V22.2001C23.7419 22.2001 24.3014 22.4319 24.714 22.8445L20.4714 27.0871ZM23.1584 28.2001H27.44V22.2001H23.1584V28.2001ZM27.44 28.2001C28.4478 28.2001 29.4144 27.7998 30.127 27.0871L25.8844 22.8445C26.297 22.4319 26.8565 22.2001 27.44 22.2001V28.2001ZM30.127 27.0871C30.8397 26.3745 31.24 25.4079 31.24 24.4001H25.24C25.24 23.8166 25.4718 23.2571 25.8844 22.8445L30.127 27.0871ZM31.24 24.4001C31.24 23.3923 30.8397 22.4257 30.127 21.7131L25.8844 25.9557C25.4718 25.5431 25.24 24.9836 25.24 24.4001H31.24ZM30.127 21.7131C29.4144 21.0004 28.4478 20.6001 27.44 20.6001V26.6001C26.8565 26.6001 26.297 26.3683 25.8844 25.9557L30.127 21.7131ZM27.44 20.6001H23.1584V26.6001H27.44V20.6001Z" fill="black" mask="url(#path-3-inside-2_1259_131)"/>
<path d="M31.152 13.7855C31.0981 13.4482 30.9778 13.1249 30.7982 12.8344C30.6186 12.5438 30.3832 12.2917 30.1056 12.0927L29.5968 11.7279L30.3776 10.6431C30.619 10.3086 30.7921 9.92991 30.887 9.52853C30.9819 9.12716 30.9968 8.71102 30.9309 8.30388C30.8649 7.89674 30.7193 7.5066 30.5025 7.15574C30.2857 6.80489 30.0019 6.5002 29.6672 6.25909L28.8736 5.68629C28.1975 5.19999 27.356 5.002 26.5339 5.1358C25.7119 5.26961 24.9766 5.72427 24.4896 6.39989L12.352 23.2479C12.2745 23.3557 12.225 23.481 12.208 23.6127L11.4304 29.5263C11.4119 29.6694 11.4325 29.8148 11.4899 29.9471C11.5473 30.0794 11.6394 30.1938 11.7564 30.2781C11.8735 30.3624 12.0112 30.4134 12.1549 30.4259C12.2986 30.4383 12.443 30.4116 12.5728 30.3487L17.9392 27.7439C18.059 27.6859 18.1623 27.5991 18.24 27.4911L28.6592 13.0239L29.168 13.3887C29.2748 13.4656 29.3654 13.5627 29.4346 13.6746C29.5037 13.7865 29.5502 13.911 29.5713 14.0408C29.5924 14.1707 29.5877 14.3034 29.5575 14.4315C29.5273 14.5595 29.4722 14.6804 29.3952 14.7871L25.6608 19.9679C25.5995 20.0532 25.5555 20.1498 25.5315 20.252C25.5074 20.3543 25.5038 20.4604 25.5207 20.5641C25.5377 20.6678 25.5749 20.7671 25.6302 20.8565C25.6855 20.9458 25.7579 21.0233 25.8432 21.0847C25.9285 21.146 26.0251 21.19 26.1274 21.214C26.2297 21.2381 26.3357 21.2417 26.4394 21.2248C26.5431 21.2078 26.6425 21.1707 26.7318 21.1153C26.8211 21.06 26.8987 20.9876 26.96 20.9023L30.6944 15.7247C30.8953 15.4479 31.0392 15.1339 31.1178 14.801C31.1963 14.4681 31.208 14.1229 31.152 13.7855ZM25.7888 7.33429C26.0281 7.00331 26.3888 6.78071 26.7919 6.71533C27.195 6.64994 27.6076 6.7471 27.9392 6.98549L28.7328 7.55829C28.8971 7.67648 29.0364 7.82589 29.1428 7.99797C29.2492 8.17006 29.3207 8.36144 29.3531 8.56117C29.3855 8.7609 29.3782 8.96505 29.3316 9.16196C29.285 9.35886 29.2001 9.54465 29.0816 9.70869L27.84 11.4367L17.7056 25.4911C17.3544 24.884 16.8779 24.3586 16.308 23.9497C15.7381 23.5409 15.0877 23.258 14.4 23.1199L25.7888 7.33429ZM13.6864 24.6399C14.2967 24.6902 14.8817 24.9059 15.3785 25.264C15.8753 25.622 16.265 26.1088 16.5056 26.6719L13.2096 28.2719L13.6864 24.6399Z" fill="black"/>
</svg>
