<svg width="32" height="32" viewBox="0 0 32 32" fill="none" xmlns="http://www.w3.org/2000/svg">
<path d="M19 18.5V17.4286L16.5 18.5H19Z" fill="#C4C4C4"/>
<path d="M5.99992 6.00008H1.33325V8.66675M5.99992 6.00008H10.6666H15.3333M5.99992 6.00008V2.66675H15.3333V6.00008M15.3333 6.00008H19.9999V8.66675M1.33325 8.66675V19.3334H5.33325M1.33325 8.66675C1.33325 8.66675 3.99992 11.3334 5.33325 11.3334M19.9999 8.66675C19.9999 8.66675 17.3333 11.3334 15.9999 11.3334M19.9999 8.66675V17.9048M5.33325 11.3334C5.33325 14.4576 5.33325 19.3334 5.33325 19.3334M5.33325 11.3334C9.49884 11.3334 11.8343 11.3334 15.9999 11.3334M5.33325 19.3334H15.9999M15.9999 11.3334C15.9999 14.4576 15.9999 19.3334 15.9999 19.3334M15.9999 19.3334H16.6666M11.9999 21.3334L16.6666 19.3334M21.3333 17.3334L19.9999 17.9048M19.9999 17.9048L16.6666 19.3334" stroke="black" stroke-width="1.6" stroke-linejoin="round"/>
<path d="M30.6667 21.3333L21.3333 17.3333L12 21.3333L16 23.0475M30.6667 21.3333L26.6667 23.0475M30.6667 21.3333V27.9999M26.6667 22.6666V23.0475M16 22.6666V23.0475M26.6667 23.0475V29.9999H16V23.0475M26.6667 23.0475L21.3333 25.3333L16 23.0475" stroke="black" stroke-width="1.6" stroke-linejoin="round"/>
</svg>
