<svg width="24" height="24" viewBox="0 0 24 24" fill="none" xmlns="http://www.w3.org/2000/svg">
<path fill-rule="evenodd" clip-rule="evenodd" d="M11.7761 7.5722C11.2041 7.5722 10.7421 8.0352 10.7451 8.6082C10.7471 9.1832 11.2151 9.6512 11.7891 9.6532L14.9101 9.6672L14.9241 12.7882C14.9261 13.3622 15.3941 13.8302 15.9691 13.8322C16.5431 13.8352 17.0061 13.3712 17.0051 12.7972L16.9861 8.6362C16.9831 8.0622 16.5151 7.5942 15.9411 7.5912L11.7801 7.5722H11.7761Z" fill="#8F1A50"/>
<path fill-rule="evenodd" clip-rule="evenodd" d="M13.8491 9.31321L6.7781 16.3842C6.3881 16.7752 6.3881 17.4092 6.7781 17.7992C7.1681 18.1892 7.8021 18.1892 8.1931 17.7992L15.2641 10.7282C15.6541 10.3372 15.6541 9.70421 15.2641 9.31321C15.0691 9.1192 14.8121 9.0212 14.5571 9.0212C14.3001 9.0212 14.0441 9.1192 13.8491 9.31321Z" fill="#8F1A50"/>
</svg>
