<svg width="100" height="100" viewBox="0 0 100 100" fill="none" xmlns="http://www.w3.org/2000/svg">
<path d="M50.0002 29.1667V87.5M50.0002 29.1667C50.0002 29.1667 43.7134 21.9717 37.5002 18.75C30.6481 15.1971 20.8335 12.5 20.8335 12.5M50.0002 29.1667C50.0002 29.1667 56.9938 21.9214 62.5002 18.75C69.8608 14.5107 79.1668 12.5 79.1668 12.5M50.0002 87.5C50.0002 87.5 43.906 75.8492 37.5002 70.8333C30.6009 65.4311 20.8335 62.5 20.8335 62.5V12.5M50.0002 87.5C50.0002 87.5 56.0944 75.8492 62.5002 70.8333C69.3994 65.4311 79.1668 62.5 79.1668 62.5V12.5M50.0002 87.5C50.0002 87.5 59.4575 79.7173 66.6668 77.0833C75.8689 73.7214 91.6668 75 91.6668 75V25L79.1668 12.5M50.0002 87.5C50.0002 87.5 37.929 79.5259 29.1668 77.0833C21.2906 74.8878 8.3335 75 8.3335 75V25L20.8335 12.5" stroke="black" stroke-width="6" stroke-linejoin="round"/>
<path d="M50.0002 29.1667V87.5M50.0002 29.1667C50.0002 29.1667 43.7134 21.9717 37.5002 18.75C30.6481 15.1971 20.8335 12.5 20.8335 12.5V62.5C20.8335 62.5 30.6009 65.4311 37.5002 70.8333C43.906 75.8492 50.0002 87.5 50.0002 87.5M50.0002 29.1667C50.0002 29.1667 56.9938 21.9214 62.5002 18.75C69.8608 14.5107 79.1668 12.5 79.1668 12.5V62.5C79.1668 62.5 69.3994 65.4311 62.5002 70.8333C56.0944 75.8492 50.0002 87.5 50.0002 87.5" stroke="#891D56" stroke-width="6" stroke-linejoin="round"/>
</svg>
