<svg width="30" height="40" viewBox="0 0 30 40" fill="none" xmlns="http://www.w3.org/2000/svg">
<rect width="30" height="40" fill="#E8EAED"/>
<path d="M10.688 24.472C10.5813 24.472 10.4907 24.44 10.416 24.376C10.352 24.3013 10.32 24.2107 10.32 24.104V20.776H7.04C6.93333 20.776 6.84267 20.744 6.768 20.68C6.704 20.6053 6.672 20.5147 6.672 20.408V19.896C6.672 19.7893 6.704 19.704 6.768 19.64C6.84267 19.5653 6.93333 19.528 7.04 19.528H10.32V16.296C10.32 16.1893 10.352 16.104 10.416 16.04C10.4907 15.9653 10.5813 15.928 10.688 15.928H11.248C11.3547 15.928 11.44 15.9653 11.504 16.04C11.5787 16.104 11.616 16.1893 11.616 16.296V19.528H14.912C15.0187 19.528 15.104 19.5653 15.168 19.64C15.2427 19.704 15.28 19.7893 15.28 19.896V20.408C15.28 20.5147 15.2427 20.6053 15.168 20.68C15.104 20.744 15.0187 20.776 14.912 20.776H11.616V24.104C11.616 24.2107 11.5787 24.3013 11.504 24.376C11.44 24.44 11.3547 24.472 11.248 24.472H10.688ZM17.4934 25C17.3974 25 17.3174 24.968 17.2534 24.904C17.2 24.8293 17.1734 24.744 17.1734 24.648L17.2054 24.504L21.1894 15.192H15.9414C15.8347 15.192 15.744 15.16 15.6694 15.096C15.6054 15.0213 15.5734 14.9307 15.5734 14.824V14.184C15.5734 14.0667 15.6054 13.976 15.6694 13.912C15.744 13.8373 15.8347 13.8 15.9414 13.8H22.5014C22.6187 13.8 22.7094 13.8373 22.7734 13.912C22.848 13.976 22.8854 14.0667 22.8854 14.184V14.776C22.8854 14.968 22.8427 15.176 22.7574 15.4L18.8214 24.6C18.768 24.7173 18.704 24.8133 18.6294 24.888C18.5654 24.9627 18.4747 25 18.3574 25H17.4934Z" fill="#505968"/>
</svg>
