<svg width="32" height="32" viewBox="0 0 32 32" fill="none" xmlns="http://www.w3.org/2000/svg">
<g clip-path="url(#clip0_564_263)">
<path d="M21.8984 24.4705L22.3376 25.2312C21.5617 25.5977 20.7156 25.7963 19.8599 25.8113L19.749 25.8113C16.4072 25.8108 13.6877 23.0911 13.6877 19.7492C13.6877 16.407 16.4076 13.6871 19.7498 13.6871C23.0921 13.6871 25.8119 16.4069 25.8119 19.7492C25.8119 21.0238 24.7741 22.0615 23.4996 22.0615C22.9083 22.0615 22.3687 21.8385 21.9584 21.4708L21.6247 21.1718L21.291 21.4708C20.8807 21.8385 20.3411 22.0615 19.7498 22.0615C18.4752 22.0615 17.4375 21.0238 17.4375 19.7492C17.4375 18.4746 18.4752 17.4369 19.7498 17.4369C21.0244 17.4369 22.0622 18.4746 22.0622 19.7492C22.0622 20.5422 22.7065 21.1866 23.4996 21.1866C24.2926 21.1866 24.937 20.5422 24.937 19.7492C24.937 16.8886 22.6104 14.562 19.7498 14.562C16.8892 14.562 14.5627 16.8886 14.5627 19.7492C14.5627 22.6011 16.8749 24.9221 19.7235 24.9363C19.7331 24.9369 19.7437 24.9373 19.7549 24.9373C20.494 24.9373 21.2258 24.7769 21.8984 24.4705ZM18.3124 19.7492C18.3124 20.5422 18.9568 21.1866 19.7498 21.1866C20.5429 21.1866 21.1872 20.5422 21.1872 19.7492C21.1872 18.9562 20.5428 18.3118 19.7498 18.3118C18.9568 18.3118 18.3124 18.9562 18.3124 19.7492Z" fill="black" stroke="black" stroke-width="0.999934"/>
<path d="M29.2853 26.5094L29.1187 26.742L29.2348 27.0034L31.0162 31.0156L27.004 29.2343L26.7425 29.1182L26.51 29.2847C24.4816 30.7375 22.1564 31.4984 19.7498 31.4984C14.6482 31.4984 10.296 28.1931 8.70693 23.5956L8.62775 23.3666L8.39888 23.2868C7.3621 22.9256 6.38726 22.422 5.4897 21.7838L5.2575 21.6187L4.99709 21.7343L0.983829 23.5161L2.76518 19.5039L2.88125 19.2425L2.71469 19.0099C1.2619 16.9815 0.501029 14.6564 0.501029 12.2497C0.501029 5.7896 5.7894 0.500455 12.2502 0.500455C17.3645 0.500455 21.692 3.83575 23.2872 8.39869L23.367 8.62717L23.5958 8.70623C28.1934 10.2952 31.499 14.6474 31.499 19.7492C31.499 22.1558 30.7382 24.481 29.2853 26.5094ZM3.23243 20.6077L2.70553 21.7944L3.89226 21.2675L5.38332 20.6055C5.75097 20.8992 6.45304 21.4482 7.46673 21.9489L8.31749 22.3692L8.1831 21.4299C8.1045 20.8805 8.06303 20.3195 8.06303 19.7492C8.06303 13.3056 13.3061 8.06245 19.7498 8.06245C20.3202 8.06245 20.8813 8.10393 21.4308 8.18259L22.3693 8.31694L21.9501 7.46657C20.1479 3.81141 16.379 1.3754 12.2502 1.3754C6.25369 1.3754 1.37597 6.25312 1.37597 12.2497C1.37597 14.3751 2.02021 16.0917 2.68007 17.3061C3.01006 17.9134 3.34461 18.3965 3.6057 18.7438C3.71842 18.8938 3.81746 19.0184 3.89511 19.1151L3.23243 20.6077ZM28.1077 28.767L29.2945 29.2939L28.7676 28.1072L28.1049 26.6147C28.1829 26.518 28.2824 26.3931 28.3957 26.243C28.657 25.8965 28.9916 25.415 29.3214 24.809C29.9811 23.5968 30.624 21.8822 30.624 19.7492C30.624 13.7843 25.7435 8.9374 19.7498 8.9374C13.7877 8.9374 8.93797 13.7871 8.93797 19.7492C8.93797 25.7429 13.7848 30.6235 19.7498 30.6235C21.8751 30.6235 23.5917 29.9792 24.8062 29.3194C25.4135 28.9894 25.8966 28.6548 26.2439 28.3937C26.3939 28.281 26.5185 28.182 26.6152 28.1043L28.1077 28.767Z" fill="black" stroke="black" stroke-width="0.999934"/>
</g>
<defs>
<clipPath id="clip0_564_263">
<rect width="32" height="32" fill="white"/>
</clipPath>
</defs>
</svg>
